<svg width="1062" height="713" viewBox="0 0 1062 713" fill="none" xmlns="http://www.w3.org/2000/svg">
<g id="bg">
<g id="Group" opacity="0.5">
<path id="Vector" opacity="0.5" d="M1052.72 203.71C1062.14 239.09 1036.47 280.53 995.17 300.07C953.87 319.61 937.34 345.96 976.62 388.26C1015.9 430.56 1031.25 524.96 910.25 535.7C789.25 546.44 798.87 553.51 792.1 589.38C785.33 625.25 745.1 661.55 674 643.77C602.9 625.99 573.78 599.85 462 657.68C350.22 715.51 240 731.63 160.22 684.68C80.44 637.73 38.53 601.3 58.36 532.66C78.19 464.02 106.1 425.73 50.94 373.23C-4.22001 320.73 -37.33 233.14 74.09 169.72C185.51 106.3 259.31 118.29 356.32 67.04C453.33 15.79 539.32 -17.96 638.64 12.04C737.96 42.04 717.19 96.66 796.64 102.67C876.09 108.68 1020.43 82.39 1052.72 203.71Z" fill="#CACDE9"/>
<path id="Vector_2" opacity="0.5" d="M1058.04 284.73C1054.83 282.13 1036.47 280.53 1007.65 304.86C978.83 329.19 974.05 349.15 993.33 364.72C1014.26 381.64 1044.81 361.34 1043.53 341.79C1042.25 322.24 1035.64 314.25 1050.23 304.88C1064.82 295.51 1063.12 288.83 1058.04 284.73Z" fill="#CACDE9"/>
<path id="Vector_3" opacity="0.5" d="M599.75 671.09C602.22 662.51 595.07 646.15 570.47 642.15C545.87 638.15 510.26 651.71 496.04 666.67C481.82 681.63 494.29 686.42 500.35 686.03C506.41 685.64 521.18 679.03 535.96 672.47C550.74 665.91 566.25 670.47 569.64 675.87C573.03 681.27 591.76 688.45 599.75 671.09Z" fill="#CACDE9"/>
</g>
</g>
</svg>
