<?xml version="1.0" encoding="UTF-8" standalone="no"?>
<!DOCTYPE svg PUBLIC "-//W3C//DTD SVG 1.1//EN" "http://www.w3.org/Graphics/SVG/1.1/DTD/svg11.dtd">
<svg width="100%" height="100%" viewBox="0 0 923 618" version="1.1" xmlns="http://www.w3.org/2000/svg" xmlns:xlink="http://www.w3.org/1999/xlink" xml:space="preserve" xmlns:serif="http://www.serif.com/" style="fill-rule:evenodd;clip-rule:evenodd;stroke-linejoin:round;stroke-miterlimit:2;">
    <g transform="matrix(1,0,0,1,-1299.45,-6858.58)">
        <g transform="matrix(1,0,0,1,1536.75,4141.12)">
            <g opacity="0.5">
                <g transform="matrix(1,0,0,1,677.124,3159.78)">
                    <path d="M0,-266.052C8.178,-235.327 -14.118,-199.328 -49.995,-182.354C-85.871,-165.378 -100.223,-142.504 -66.107,-105.751C-31.99,-68.998 -18.686,12.985 -123.759,22.315C-228.833,31.644 -220.503,37.789 -226.386,68.946C-232.269,100.104 -267.19,131.638 -328.972,116.196C-390.754,100.753 -416.023,78.041 -513.129,128.276C-610.235,178.511 -705.993,192.509 -775.261,151.766C-844.528,111.024 -880.958,79.297 -863.731,19.68C-846.505,-39.937 -822.266,-73.207 -870.173,-118.803C-918.081,-164.4 -946.852,-240.494 -850.064,-295.582C-753.276,-350.67 -689.182,-340.253 -604.912,-384.772C-520.642,-429.291 -445.939,-458.561 -359.684,-432.539C-273.428,-406.517 -291.451,-359.032 -222.413,-353.814C-153.375,-348.595 -28.05,-371.438 0,-266.052" style="fill:rgb(201,206,244);fill-rule:nonzero;"/>
                </g>
                <g transform="matrix(1,0,0,1,681.74,3044.63)">
                    <path d="M0,-80.534C-2.79,-82.788 -18.734,-84.179 -43.769,-63.041C-68.803,-41.903 -72.951,-24.572 -56.211,-11.049C-38.022,3.645 -11.487,-13.982 -12.601,-30.969C-13.715,-47.954 -19.455,-54.888 -6.778,-63.03C5.899,-71.173 4.412,-76.97 0,-80.534" style="fill:rgb(201,206,244);fill-rule:nonzero;"/>
                </g>
                <g transform="matrix(1,0,0,1,283.655,3286.17)">
                    <path d="M0,13.533C2.153,6.082 -4.063,-8.132 -25.428,-11.605C-46.793,-15.077 -77.726,-3.3 -90.084,9.695C-102.442,22.69 -91.601,26.853 -86.339,26.508C-81.078,26.163 -68.242,20.447 -55.406,14.731C-42.57,9.015 -29.098,13.006 -26.149,17.685C-23.2,22.366 -6.937,28.61 0,13.533" style="fill:rgb(201,206,244);fill-rule:nonzero;"/>
                </g>
            </g>
        </g>
    </g>
</svg>
