<svg id="Warstwa_1" data-name="Warstwa 1" xmlns="http://www.w3.org/2000/svg" xmlns:xlink="http://www.w3.org/1999/xlink" viewBox="0 0 922.22 717.33"><defs><style>.cls-1{fill:none;}.cls-2{opacity:0.5;}.cls-3{fill:#c9cef4;}.cls-4{clip-path:url(#clip-path);}</style><clipPath id="clip-path" transform="translate(0 36.43)"><ellipse class="cls-1" cx="718.04" cy="136.03" rx="127.05" ry="127" transform="translate(580.98 853.87) rotate(-89.92)"/></clipPath></defs><g class="cls-2"><path class="cls-3" d="M914.43,239.27c8.18,30.73-14.12,66.73-50,83.7s-50.23,39.85-16.11,76.61,47.42,118.73-57.65,128.06S693.92,543.12,688,574.27s-40.8,62.7-102.58,47.25S498.4,583.37,401.3,633.6s-192.87,64.24-262.13,23.49S33.47,584.62,50.7,525s41.46-92.89-6.45-138.49S-32.42,264.83,64.36,209.74s160.89-44.67,245.16-89.19,159-73.78,245.22-47.76S623,146.29,692,151.51,886.38,133.89,914.43,239.27Z" transform="translate(0 36.43)"/><path class="cls-3" d="M919,309.64c-2.79-2.25-18.73-3.64-43.77,17.5s-29.18,38.46-12.44,52c18.19,14.69,44.73-2.94,43.61-19.92s-6.85-23.92,5.83-32.06S923.45,313.21,919,309.64Z" transform="translate(0 36.43)"/><path class="cls-3" d="M521,645.25c2.15-7.45-4.06-21.67-25.43-25.14s-52.3,8.31-64.66,21.3-1.51,17.16,3.75,16.81,18.1-6.06,30.93-11.77,26.31-1.73,29.26,2.95S514,660.33,521,645.25" transform="translate(0 36.43)"/></g><g class="cls-4"><path class="cls-3" d="M703.7-26.34a6.23,6.23,0,0,1-8.75,1,6.24,6.24,0,0,1-1-8.75,6.23,6.23,0,0,1,8.75-1A6.23,6.23,0,0,1,703.7-26.34Z" transform="translate(0 36.43)"/><path class="cls-3" d="M738.83,1.52a6.23,6.23,0,0,1-8.75,1,6.24,6.24,0,0,1-1-8.75,6.22,6.22,0,0,1,8.75-1A6.24,6.24,0,0,1,738.83,1.52Z" transform="translate(0 36.43)"/><path class="cls-3" d="M774,29.37a6.23,6.23,0,1,1-1-8.75A6.22,6.22,0,0,1,774,29.37Z" transform="translate(0 36.43)"/><path class="cls-3" d="M809.08,57.22a6.22,6.22,0,1,1-1-8.75A6.22,6.22,0,0,1,809.08,57.22Z" transform="translate(0 36.43)"/><path class="cls-3" d="M844.21,85.08a6.23,6.23,0,1,1-1-8.75A6.22,6.22,0,0,1,844.21,85.08Z" transform="translate(0 36.43)"/><path class="cls-3" d="M879.34,112.93a6.23,6.23,0,1,1-1-8.75A6.22,6.22,0,0,1,879.34,112.93Z" transform="translate(0 36.43)"/><path class="cls-3" d="M685.14-2.91a6.22,6.22,0,0,1-8.75,1,6.23,6.23,0,0,1-1-8.75,6.23,6.23,0,0,1,8.75-1A6.24,6.24,0,0,1,685.14-2.91Z" transform="translate(0 36.43)"/><path class="cls-3" d="M720.27,24.94a6.23,6.23,0,1,1-1-8.75A6.23,6.23,0,0,1,720.27,24.94Z" transform="translate(0 36.43)"/><path class="cls-3" d="M755.39,52.8a6.22,6.22,0,1,1-1-8.75A6.23,6.23,0,0,1,755.39,52.8Z" transform="translate(0 36.43)"/><path class="cls-3" d="M790.52,80.65a6.23,6.23,0,1,1-1-8.75A6.23,6.23,0,0,1,790.52,80.65Z" transform="translate(0 36.43)"/><path class="cls-3" d="M825.65,108.5a6.23,6.23,0,1,1-1-8.75A6.23,6.23,0,0,1,825.65,108.5Z" transform="translate(0 36.43)"/><path class="cls-3" d="M860.78,136.36a6.23,6.23,0,1,1-1-8.75A6.24,6.24,0,0,1,860.78,136.36Z" transform="translate(0 36.43)"/><path class="cls-3" d="M666.58,20.52a6.23,6.23,0,1,1-1-8.75A6.24,6.24,0,0,1,666.58,20.52Z" transform="translate(0 36.43)"/><path class="cls-3" d="M701.7,48.37a6.22,6.22,0,1,1-1-8.75A6.22,6.22,0,0,1,701.7,48.37Z" transform="translate(0 36.43)"/><path class="cls-3" d="M736.83,76.22a6.23,6.23,0,1,1-1-8.75A6.22,6.22,0,0,1,736.83,76.22Z" transform="translate(0 36.43)"/><path class="cls-3" d="M772,104.08a6.23,6.23,0,1,1-1-8.75A6.24,6.24,0,0,1,772,104.08Z" transform="translate(0 36.43)"/><path class="cls-3" d="M807.09,131.93a6.23,6.23,0,1,1-1-8.75A6.23,6.23,0,0,1,807.09,131.93Z" transform="translate(0 36.43)"/><path class="cls-3" d="M842.21,159.78a6.22,6.22,0,1,1-1-8.75A6.21,6.21,0,0,1,842.21,159.78Z" transform="translate(0 36.43)"/><circle class="cls-3" cx="643.13" cy="40.07" r="6.23" transform="translate(-0.62 48.15) rotate(-1.04)"/><path class="cls-3" d="M683.14,71.8a6.23,6.23,0,1,1-1-8.75A6.24,6.24,0,0,1,683.14,71.8Z" transform="translate(0 36.43)"/><path class="cls-3" d="M718.27,99.65a6.23,6.23,0,1,1-1-8.75A6.23,6.23,0,0,1,718.27,99.65Z" transform="translate(0 36.43)"/><path class="cls-3" d="M753.4,127.5a6.23,6.23,0,1,1-1-8.75A6.22,6.22,0,0,1,753.4,127.5Z" transform="translate(0 36.43)"/><path class="cls-3" d="M788.52,155.36a6.22,6.22,0,1,1-1-8.75A6.23,6.23,0,0,1,788.52,155.36Z" transform="translate(0 36.43)"/><path class="cls-3" d="M823.65,183.21a6.23,6.23,0,1,1-1-8.75A6.22,6.22,0,0,1,823.65,183.21Z" transform="translate(0 36.43)"/><path class="cls-3" d="M629.45,67.37a6.23,6.23,0,1,1-1-8.75A6.23,6.23,0,0,1,629.45,67.37Z" transform="translate(0 36.43)"/><path class="cls-3" d="M664.58,95.22a6.23,6.23,0,1,1-1-8.75A6.22,6.22,0,0,1,664.58,95.22Z" transform="translate(0 36.43)"/><path class="cls-3" d="M699.71,123.08a6.23,6.23,0,1,1-1-8.75A6.24,6.24,0,0,1,699.71,123.08Z" transform="translate(0 36.43)"/><path class="cls-3" d="M734.83,150.93a6.22,6.22,0,1,1-1-8.75A6.22,6.22,0,0,1,734.83,150.93Z" transform="translate(0 36.43)"/><path class="cls-3" d="M770,178.78a6.23,6.23,0,1,1-1-8.75A6.22,6.22,0,0,1,770,178.78Z" transform="translate(0 36.43)"/><path class="cls-3" d="M805.09,206.63a6.23,6.23,0,1,1-1-8.74A6.23,6.23,0,0,1,805.09,206.63Z" transform="translate(0 36.43)"/><path class="cls-3" d="M610.89,90.79a6.23,6.23,0,1,1-1-8.74A6.23,6.23,0,0,1,610.89,90.79Z" transform="translate(0 36.43)"/><path class="cls-3" d="M646,118.65a6.23,6.23,0,1,1-1-8.75A6.23,6.23,0,0,1,646,118.65Z" transform="translate(0 36.43)"/><path class="cls-3" d="M681.14,146.5a6.22,6.22,0,1,1-1-8.75A6.21,6.21,0,0,1,681.14,146.5Z" transform="translate(0 36.43)"/><path class="cls-3" d="M716.27,174.35a6.23,6.23,0,1,1-1-8.74A6.23,6.23,0,0,1,716.27,174.35Z" transform="translate(0 36.43)"/><circle class="cls-3" cx="746.52" cy="198.34" r="6.23" transform="matrix(1, -0.02, 0.02, 1, -4.03, 52.29)"/><path class="cls-3" d="M786.53,230.06a6.23,6.23,0,1,1-1-8.75A6.22,6.22,0,0,1,786.53,230.06Z" transform="translate(0 36.43)"/><path class="cls-3" d="M592.33,114.22a6.23,6.23,0,1,1-1-8.75A6.22,6.22,0,0,1,592.33,114.22Z" transform="translate(0 36.43)"/><path class="cls-3" d="M627.45,142.07a6.22,6.22,0,1,1-1-8.74A6.22,6.22,0,0,1,627.45,142.07Z" transform="translate(0 36.43)"/><path class="cls-3" d="M662.58,169.93a6.23,6.23,0,1,1-1-8.75A6.23,6.23,0,0,1,662.58,169.93Z" transform="translate(0 36.43)"/><path class="cls-3" d="M697.71,197.78a6.23,6.23,0,1,1-1-8.75A6.22,6.22,0,0,1,697.71,197.78Z" transform="translate(0 36.43)"/><path class="cls-3" d="M732.84,225.63a6.23,6.23,0,1,1-1-8.74A6.23,6.23,0,0,1,732.84,225.63Z" transform="translate(0 36.43)"/><path class="cls-3" d="M768,253.49a6.22,6.22,0,1,1-1-8.75A6.22,6.22,0,0,1,768,253.49Z" transform="translate(0 36.43)"/><path class="cls-3" d="M573.76,137.65a6.23,6.23,0,1,1-1-8.75A6.22,6.22,0,0,1,573.76,137.65Z" transform="translate(0 36.43)"/><path class="cls-3" d="M608.89,165.5a6.23,6.23,0,1,1-1-8.75A6.22,6.22,0,0,1,608.89,165.5Z" transform="translate(0 36.43)"/><path class="cls-3" d="M644,193.35a6.23,6.23,0,1,1-1-8.75A6.23,6.23,0,0,1,644,193.35Z" transform="translate(0 36.43)"/><path class="cls-3" d="M679.15,221.21a6.23,6.23,0,1,1-1-8.75A6.23,6.23,0,0,1,679.15,221.21Z" transform="translate(0 36.43)"/><path class="cls-3" d="M714.27,249.06a6.22,6.22,0,1,1-1-8.75A6.21,6.21,0,0,1,714.27,249.06Z" transform="translate(0 36.43)"/><path class="cls-3" d="M749.4,276.91a6.23,6.23,0,1,1-1-8.75A6.23,6.23,0,0,1,749.4,276.91Z" transform="translate(0 36.43)"/><path class="cls-3" d="M555.2,161.07a6.23,6.23,0,1,1-1-8.75A6.23,6.23,0,0,1,555.2,161.07Z" transform="translate(0 36.43)"/><path class="cls-3" d="M590.33,188.93a6.23,6.23,0,1,1-1-8.75A6.23,6.23,0,0,1,590.33,188.93Z" transform="translate(0 36.43)"/><path class="cls-3" d="M625.45,216.78a6.22,6.22,0,1,1-1-8.75A6.21,6.21,0,0,1,625.45,216.78Z" transform="translate(0 36.43)"/><path class="cls-3" d="M660.58,244.63a6.23,6.23,0,1,1-1-8.75A6.22,6.22,0,0,1,660.58,244.63Z" transform="translate(0 36.43)"/><path class="cls-3" d="M695.71,272.49a6.23,6.23,0,1,1-1-8.75A6.24,6.24,0,0,1,695.71,272.49Z" transform="translate(0 36.43)"/><path class="cls-3" d="M730.84,300.34a6.23,6.23,0,1,1-1-8.75A6.23,6.23,0,0,1,730.84,300.34Z" transform="translate(0 36.43)"/></g></svg>