<svg id="Warstwa_1" data-name="Warstwa 1" xmlns="http://www.w3.org/2000/svg" xmlns:xlink="http://www.w3.org/1999/xlink" viewBox="0 0 922.22 706.87"><defs><style>.cls-1{fill:none;}.cls-2{opacity:0.5;}.cls-3{fill:#c9cef4;}.cls-4{clip-path:url(#clip-path);}</style><clipPath id="clip-path" transform="translate(-2.97 -12)"><ellipse class="cls-1" cx="692.04" cy="552.19" rx="127" ry="127.05" transform="translate(-0.8 1) rotate(-0.08)"/></clipPath></defs><g class="cls-2"><path class="cls-3" d="M917.4,188.27c8.18,30.73-14.12,66.73-50,83.7s-50.23,39.85-16.12,76.61,47.43,118.73-57.65,128.06S696.9,492.12,691,523.27s-40.8,62.7-102.58,47.25-87-38.15-184.16,12.08-192.86,64.24-262.13,23.49S36.44,533.62,53.67,474s41.46-92.89-6.44-138.49S-29.45,213.83,67.34,158.74s160.88-44.67,245.15-89.19,159-73.78,245.23-47.76S626,95.29,695,100.51,889.35,82.89,917.4,188.27Z" transform="translate(-2.97 -12)"/><path class="cls-3" d="M922,258.64c-2.79-2.25-18.74-3.64-43.77,17.5s-29.18,38.46-12.44,52c18.18,14.69,44.72-2.94,43.61-19.92s-6.86-23.92,5.82-32.06S926.43,262.21,922,258.64Z" transform="translate(-2.97 -12)"/><path class="cls-3" d="M523.93,594.25c2.16-7.45-4.06-21.67-25.43-25.14s-52.29,8.31-64.65,21.3-1.52,17.16,3.74,16.81,18.1-6.06,30.94-11.77,26.3-1.73,29.25,2.95,19.21,10.93,26.15-4.15" transform="translate(-2.97 -12)"/></g><g class="cls-4"><path class="cls-3" d="M706.38,389.83a6.23,6.23,0,1,0,1-8.75A6.22,6.22,0,0,0,706.38,389.83Z" transform="translate(-2.97 -12)"/><path class="cls-3" d="M671.25,417.68a6.23,6.23,0,1,0,1-8.74A6.23,6.23,0,0,0,671.25,417.68Z" transform="translate(-2.97 -12)"/><path class="cls-3" d="M636.13,445.54a6.22,6.22,0,1,0,1-8.75A6.22,6.22,0,0,0,636.13,445.54Z" transform="translate(-2.97 -12)"/><path class="cls-3" d="M601,473.39a6.23,6.23,0,1,0,1-8.75A6.22,6.22,0,0,0,601,473.39Z" transform="translate(-2.97 -12)"/><path class="cls-3" d="M565.87,501.24a6.23,6.23,0,1,0,1-8.75A6.23,6.23,0,0,0,565.87,501.24Z" transform="translate(-2.97 -12)"/><path class="cls-3" d="M530.74,529.1a6.23,6.23,0,1,0,1-8.75A6.23,6.23,0,0,0,530.74,529.1Z" transform="translate(-2.97 -12)"/><path class="cls-3" d="M725,413.26a6.22,6.22,0,1,0,1-8.75A6.22,6.22,0,0,0,725,413.26Z" transform="translate(-2.97 -12)"/><path class="cls-3" d="M689.82,441.11a6.23,6.23,0,1,0,1-8.75A6.21,6.21,0,0,0,689.82,441.11Z" transform="translate(-2.97 -12)"/><path class="cls-3" d="M654.69,469a6.23,6.23,0,1,0,1-8.75A6.23,6.23,0,0,0,654.69,469Z" transform="translate(-2.97 -12)"/><path class="cls-3" d="M619.56,496.82a6.23,6.23,0,1,0,1-8.75A6.23,6.23,0,0,0,619.56,496.82Z" transform="translate(-2.97 -12)"/><path class="cls-3" d="M584.43,524.67a6.23,6.23,0,1,0,1-8.75A6.22,6.22,0,0,0,584.43,524.67Z" transform="translate(-2.97 -12)"/><path class="cls-3" d="M549.31,552.52a6.22,6.22,0,1,0,1-8.75A6.22,6.22,0,0,0,549.31,552.52Z" transform="translate(-2.97 -12)"/><path class="cls-3" d="M743.51,436.68a6.23,6.23,0,1,0,1-8.75A6.22,6.22,0,0,0,743.51,436.68Z" transform="translate(-2.97 -12)"/><path class="cls-3" d="M708.38,464.54a6.23,6.23,0,1,0,1-8.75A6.23,6.23,0,0,0,708.38,464.54Z" transform="translate(-2.97 -12)"/><path class="cls-3" d="M673.25,492.39a6.23,6.23,0,1,0,1-8.75A6.22,6.22,0,0,0,673.25,492.39Z" transform="translate(-2.97 -12)"/><path class="cls-3" d="M638.12,520.24a6.23,6.23,0,1,0,1-8.75A6.23,6.23,0,0,0,638.12,520.24Z" transform="translate(-2.97 -12)"/><path class="cls-3" d="M603,548.1a6.22,6.22,0,1,0,1-8.75A6.23,6.23,0,0,0,603,548.1Z" transform="translate(-2.97 -12)"/><path class="cls-3" d="M567.87,576a6.23,6.23,0,1,0,1-8.75A6.23,6.23,0,0,0,567.87,576Z" transform="translate(-2.97 -12)"/><circle class="cls-3" cx="766.95" cy="456.24" r="6.23" transform="translate(293.85 1202.76) rotate(-88.96)"/><path class="cls-3" d="M726.94,488a6.23,6.23,0,1,0,1-8.75A6.22,6.22,0,0,0,726.94,488Z" transform="translate(-2.97 -12)"/><path class="cls-3" d="M691.82,515.82a6.22,6.22,0,1,0,1-8.75A6.23,6.23,0,0,0,691.82,515.82Z" transform="translate(-2.97 -12)"/><path class="cls-3" d="M656.69,543.67a6.23,6.23,0,1,0,1-8.75A6.22,6.22,0,0,0,656.69,543.67Z" transform="translate(-2.97 -12)"/><path class="cls-3" d="M621.56,571.52a6.23,6.23,0,1,0,1-8.75A6.22,6.22,0,0,0,621.56,571.52Z" transform="translate(-2.97 -12)"/><path class="cls-3" d="M586.43,599.38a6.23,6.23,0,1,0,1-8.75A6.24,6.24,0,0,0,586.43,599.38Z" transform="translate(-2.97 -12)"/><path class="cls-3" d="M780.63,483.54a6.23,6.23,0,1,0,1-8.75A6.24,6.24,0,0,0,780.63,483.54Z" transform="translate(-2.97 -12)"/><path class="cls-3" d="M745.51,511.39a6.22,6.22,0,1,0,1-8.75A6.22,6.22,0,0,0,745.51,511.39Z" transform="translate(-2.97 -12)"/><path class="cls-3" d="M710.38,539.24a6.23,6.23,0,1,0,1-8.75A6.21,6.21,0,0,0,710.38,539.24Z" transform="translate(-2.97 -12)"/><path class="cls-3" d="M675.25,567.1a6.23,6.23,0,1,0,1-8.75A6.24,6.24,0,0,0,675.25,567.1Z" transform="translate(-2.97 -12)"/><path class="cls-3" d="M640.12,595a6.23,6.23,0,1,0,1-8.75A6.23,6.23,0,0,0,640.12,595Z" transform="translate(-2.97 -12)"/><path class="cls-3" d="M605,622.8a6.23,6.23,0,1,0,1-8.75A6.22,6.22,0,0,0,605,622.8Z" transform="translate(-2.97 -12)"/><path class="cls-3" d="M799.2,507a6.22,6.22,0,1,0,1-8.75A6.21,6.21,0,0,0,799.2,507Z" transform="translate(-2.97 -12)"/><path class="cls-3" d="M764.07,534.82a6.23,6.23,0,1,0,1-8.75A6.23,6.23,0,0,0,764.07,534.82Z" transform="translate(-2.97 -12)"/><path class="cls-3" d="M728.94,562.67a6.23,6.23,0,1,0,1-8.75A6.23,6.23,0,0,0,728.94,562.67Z" transform="translate(-2.97 -12)"/><path class="cls-3" d="M693.81,590.52a6.23,6.23,0,1,0,1-8.75A6.22,6.22,0,0,0,693.81,590.52Z" transform="translate(-2.97 -12)"/><circle class="cls-3" cx="663.56" cy="614.51" r="6.23" transform="matrix(0.02, -1, 1, 0.02, 32.16, 1252.9)"/><path class="cls-3" d="M623.56,646.23a6.23,6.23,0,1,0,1-8.75A6.22,6.22,0,0,0,623.56,646.23Z" transform="translate(-2.97 -12)"/><path class="cls-3" d="M817.76,530.39a6.23,6.23,0,1,0,1-8.75A6.22,6.22,0,0,0,817.76,530.39Z" transform="translate(-2.97 -12)"/><path class="cls-3" d="M782.63,558.24a6.23,6.23,0,1,0,1-8.75A6.22,6.22,0,0,0,782.63,558.24Z" transform="translate(-2.97 -12)"/><path class="cls-3" d="M747.5,586.09a6.23,6.23,0,1,0,1-8.74A6.23,6.23,0,0,0,747.5,586.09Z" transform="translate(-2.97 -12)"/><path class="cls-3" d="M712.38,614a6.22,6.22,0,1,0,1-8.75A6.22,6.22,0,0,0,712.38,614Z" transform="translate(-2.97 -12)"/><path class="cls-3" d="M677.25,641.8a6.23,6.23,0,1,0,1-8.75A6.21,6.21,0,0,0,677.25,641.8Z" transform="translate(-2.97 -12)"/><path class="cls-3" d="M642.12,669.65a6.23,6.23,0,1,0,1-8.74A6.23,6.23,0,0,0,642.12,669.65Z" transform="translate(-2.97 -12)"/><path class="cls-3" d="M836.32,553.81a6.23,6.23,0,1,0,1-8.74A6.23,6.23,0,0,0,836.32,553.81Z" transform="translate(-2.97 -12)"/><path class="cls-3" d="M801.19,581.67a6.23,6.23,0,1,0,1-8.75A6.23,6.23,0,0,0,801.19,581.67Z" transform="translate(-2.97 -12)"/><path class="cls-3" d="M766.07,609.52a6.22,6.22,0,1,0,1-8.75A6.21,6.21,0,0,0,766.07,609.52Z" transform="translate(-2.97 -12)"/><path class="cls-3" d="M730.94,637.37a6.23,6.23,0,1,0,1-8.74A6.22,6.22,0,0,0,730.94,637.37Z" transform="translate(-2.97 -12)"/><path class="cls-3" d="M695.81,665.23a6.23,6.23,0,1,0,1-8.75A6.23,6.23,0,0,0,695.81,665.23Z" transform="translate(-2.97 -12)"/><path class="cls-3" d="M660.68,693.08a6.23,6.23,0,1,0,1-8.75A6.22,6.22,0,0,0,660.68,693.08Z" transform="translate(-2.97 -12)"/><path class="cls-3" d="M854.88,577.24a6.23,6.23,0,1,0,1-8.75A6.22,6.22,0,0,0,854.88,577.24Z" transform="translate(-2.97 -12)"/><path class="cls-3" d="M819.76,605.09a6.22,6.22,0,1,0,1-8.75A6.22,6.22,0,0,0,819.76,605.09Z" transform="translate(-2.97 -12)"/><path class="cls-3" d="M784.63,633a6.23,6.23,0,1,0,1-8.75A6.22,6.22,0,0,0,784.63,633Z" transform="translate(-2.97 -12)"/><path class="cls-3" d="M749.5,660.8a6.23,6.23,0,1,0,1-8.75A6.22,6.22,0,0,0,749.5,660.8Z" transform="translate(-2.97 -12)"/><path class="cls-3" d="M714.37,688.65a6.23,6.23,0,1,0,1-8.75A6.23,6.23,0,0,0,714.37,688.65Z" transform="translate(-2.97 -12)"/><path class="cls-3" d="M679.25,716.51a6.22,6.22,0,1,0,1-8.75A6.22,6.22,0,0,0,679.25,716.51Z" transform="translate(-2.97 -12)"/></g></svg>