<?xml version="1.0" encoding="utf-8"?>
<!-- Generator: Adobe Illustrator 26.0.3, SVG Export Plug-In . SVG Version: 6.00 Build 0)  -->
<svg version="1.1" id="Warstwa_1" xmlns:serif="http://www.serif.com/"
	 xmlns="http://www.w3.org/2000/svg" xmlns:xlink="http://www.w3.org/1999/xlink" x="0px" y="0px" viewBox="0 0 1533.4 1475.3"
	 style="enable-background:new 0 0 1533.4 1475.3;" xml:space="preserve">
<style type="text/css">
	.st0{fill:#C9CEF4;}
</style>
<g>
	<g transform="matrix(0.621379,-0.78351,-0.78351,-0.621379,680.846,358.238)">
		<path class="st0" d="M428-178.8c-18.5,0-33.5,15-33.5,33.5c0,18.5,15,33.6,33.5,33.6c18.5,0,33.5-15,33.5-33.5
			C461.6-163.8,446.6-178.8,428-178.8"/>
	</g>
	<g transform="matrix(0.621328,-0.783551,-0.783551,-0.621328,707.554,379.415)">
		<path class="st0" d="M428-386.3c-18.5,0-33.6,15-33.6,33.5c0,18.5,15,33.6,33.6,33.6c18.5,0,33.5-15,33.5-33.5
			C461.6-371.3,446.6-386.3,428-386.3"/>
	</g>
	<g transform="matrix(0.621328,-0.783551,-0.783551,-0.621328,734.262,400.592)">
		<path class="st0" d="M428-593.8c-18.5,0-33.6,15-33.6,33.5s15,33.6,33.6,33.6c18.5,0,33.5-15,33.5-33.5
			C461.6-578.8,446.6-593.8,428-593.8"/>
	</g>
	<g transform="matrix(0.621263,-0.783602,-0.783602,-0.621263,640.024,354.871)">
		<path class="st0" d="M289.7,28.5c-18.5,0-33.6,15-33.5,33.5c0,18.5,15,33.6,33.5,33.6c18.5,0,33.5-15,33.5-33.5
			C323.3,43.6,308.2,28.5,289.7,28.5"/>
	</g>
	<g transform="matrix(0.621379,-0.78351,-0.78351,-0.621379,666.732,376.05)">
		<path class="st0" d="M289.7-178.9c-18.5,0-33.5,15-33.5,33.5c0,18.5,15,33.6,33.5,33.6c18.5,0,33.5-15,33.5-33.5
			C323.3-163.9,308.2-178.9,289.7-178.9"/>
	</g>
	<g transform="matrix(0.621263,-0.783602,-0.783602,-0.621263,693.44,397.225)">
		<path class="st0" d="M289.7-386.4c-18.5,0-33.6,15-33.6,33.5c0,18.5,15,33.6,33.6,33.6c18.5,0,33.5-15,33.5-33.5
			C323.2-371.4,308.2-386.4,289.7-386.4"/>
	</g>
	<g transform="matrix(0.621328,-0.783551,-0.783551,-0.621328,720.149,418.403)">
		<path class="st0" d="M289.7-593.8c-18.5,0-33.6,15-33.6,33.5c0,18.5,15,33.6,33.6,33.6c18.5,0,33.5-15,33.5-33.5
			C323.3-578.8,308.2-593.8,289.7-593.8"/>
	</g>
	<g transform="matrix(0.621328,-0.783551,-0.783551,-0.621328,599.203,351.506)">
		<path class="st0" d="M151.4,236c-18.5,0-33.6,15-33.6,33.5c0,18.5,15,33.6,33.6,33.6c18.5,0,33.5-15,33.5-33.5
			C184.9,251,169.9,236,151.4,236"/>
	</g>
	<g transform="matrix(0.621328,-0.783551,-0.783551,-0.621328,625.911,372.683)">
		<path class="st0" d="M151.4,28.5c-18.5,0-33.5,15-33.5,33.5c0,18.5,15,33.6,33.5,33.6c18.5,0,33.5-15,33.5-33.5
			C184.9,43.5,169.9,28.5,151.4,28.5"/>
	</g>
	<g transform="matrix(0.621328,-0.783551,-0.783551,-0.621328,652.619,393.861)">
		<path class="st0" d="M151.4-179c-18.5,0-33.6,15-33.5,33.5c0,18.5,15,33.6,33.5,33.6c18.5,0,33.5-15,33.5-33.5
			C184.9-163.9,169.9-179,151.4-179"/>
	</g>
	<g transform="matrix(0.621328,-0.783551,-0.783551,-0.621328,679.327,415.038)">
		<path class="st0" d="M151.4-386.4c-18.5,0-33.5,15-33.6,33.5c0,18.5,15,33.5,33.6,33.6c18.5,0,33.5-15,33.5-33.5
			C184.9-371.4,169.9-386.4,151.4-386.4"/>
	</g>
	<g transform="matrix(0.621263,-0.783602,-0.783602,-0.621263,706.034,436.214)">
		<path class="st0" d="M151.3-593.9c-18.5,0-33.6,15-33.5,33.5c0,18.5,15,33.6,33.5,33.6c18.5,0,33.6-15,33.5-33.5
			C184.9-578.9,169.9-593.9,151.3-593.9"/>
	</g>
	<g transform="matrix(0.621328,-0.783551,-0.783551,-0.621328,732.743,457.392)">
		<path class="st0" d="M151.4-801.4c-18.5,0-33.6,15-33.6,33.5c0,18.5,15,33.6,33.6,33.6s33.5-15,33.5-33.5
			C185-786.3,169.9-801.3,151.4-801.4"/>
	</g>
	<g transform="matrix(0.621314,-0.783562,-0.783562,-0.621314,585.089,369.317)">
		<path class="st0" d="M13.1,235.9c-18.5,0-33.6,15-33.5,33.5c0,18.5,15,33.6,33.5,33.6c18.5,0,33.6-15,33.5-33.5
			C46.6,250.9,31.6,235.9,13.1,235.9"/>
	</g>
	<g transform="matrix(0.621328,-0.783551,-0.783551,-0.621328,611.798,390.495)">
		<path class="st0" d="M13.1,28.4c-18.5,0-33.5,15-33.5,33.5c0,18.5,15,33.6,33.5,33.6c18.5,0,33.5-15,33.5-33.5
			S31.6,28.5,13.1,28.4"/>
	</g>
	<g transform="matrix(0.621263,-0.783602,-0.783602,-0.621263,638.506,411.671)">
		<path class="st0" d="M13-179c-18.5,0-33.5,15-33.5,33.5c0,18.5,15,33.6,33.6,33.6c18.5,0,33.5-15,33.5-33.5
			C46.6-164,31.6-179,13-179"/>
	</g>
	<g transform="matrix(0.621328,-0.783551,-0.783551,-0.621328,665.214,432.849)">
		<path class="st0" d="M13.1-386.5c-18.5,0-33.6,15-33.6,33.5c0,18.5,15,33.6,33.6,33.6s33.5-15,33.5-33.5S31.6-386.5,13.1-386.5"/>
	</g>
	<g transform="matrix(0.621379,-0.78351,-0.78351,-0.621379,691.921,454.026)">
		<path class="st0" d="M13.1-593.9c-18.5,0-33.5,15-33.5,33.5c0,18.5,15,33.6,33.5,33.6c18.5,0,33.5-15,33.5-33.5
			C46.7-578.9,31.7-593.9,13.1-593.9"/>
	</g>
	<g transform="matrix(0.621263,-0.783602,-0.783602,-0.621263,718.629,475.202)">
		<path class="st0" d="M13-801.4c-18.5,0-33.5,15-33.5,33.5c0,18.5,15,33.6,33.6,33.6c18.5,0,33.5-15,33.5-33.5
			C46.6-786.4,31.5-801.4,13-801.4"/>
	</g>
	<g transform="matrix(0.621314,-0.783562,-0.783562,-0.621314,570.977,387.128)">
		<path class="st0" d="M-125.3,235.9c-18.5,0-33.6,15-33.5,33.5c0,18.5,15,33.6,33.5,33.6c18.5,0,33.5-15,33.5-33.5
			C-91.7,250.9-106.7,235.9-125.3,235.9"/>
	</g>
	<g transform="matrix(0.621263,-0.783602,-0.783602,-0.621263,597.684,408.305)">
		<path class="st0" d="M-125.3,28.4c-18.5,0-33.6,15-33.5,33.5c0,18.5,15,33.6,33.5,33.6c18.5,0,33.5-15,33.5-33.5
			C-91.7,43.4-106.7,28.4-125.3,28.4"/>
	</g>
	<g transform="matrix(0.621328,-0.783551,-0.783551,-0.621328,624.392,429.483)">
		<path class="st0" d="M-125.3-179.1c-18.5,0-33.6,15-33.6,33.5c0,18.5,15,33.6,33.6,33.6c18.5,0,33.5-15,33.5-33.5
			C-91.7-164-106.7-179.1-125.3-179.1"/>
	</g>
	<g transform="matrix(0.621263,-0.783602,-0.783602,-0.621263,651.1,450.659)">
		<path class="st0" d="M-125.3-386.5c-18.5,0-33.6,15-33.6,33.5s15,33.6,33.6,33.6c18.5,0,33.5-15,33.5-33.5
			C-91.7-371.5-106.7-386.5-125.3-386.5"/>
	</g>
	<g transform="matrix(0.621263,-0.783602,-0.783602,-0.621263,677.807,471.837)">
		<path class="st0" d="M-125.3-594c-18.5,0-33.6,15-33.5,33.5c0,18.5,15,33.5,33.5,33.6c18.5,0,33.5-15,33.5-33.5
			C-91.7-578.9-106.8-594-125.3-594"/>
	</g>
	<g transform="matrix(0.621328,-0.783551,-0.783551,-0.621328,704.516,493.014)">
		<path class="st0" d="M-125.2-801.4c-18.5,0-33.6,15-33.6,33.5c0,18.5,15,33.6,33.6,33.6c18.5,0,33.5-15,33.5-33.5
			C-91.7-786.4-106.7-801.4-125.2-801.4"/>
	</g>
	<g transform="matrix(0.621328,-0.783551,-0.783551,-0.621328,556.863,404.94)">
		<path class="st0" d="M-263.6,235.8c-18.5,0-33.5,15-33.5,33.5c0,18.5,15,33.6,33.5,33.6c18.5,0,33.5-15,33.5-33.5
			S-245.1,235.8-263.6,235.8"/>
	</g>
	<g transform="matrix(0.621328,-0.783551,-0.783551,-0.621328,583.571,426.116)">
		<path class="st0" d="M-263.6,28.4c-18.5,0-33.6,15-33.6,33.5s15,33.6,33.6,33.6c18.5,0,33.5-15,33.5-33.5
			C-230,43.4-245,28.4-263.6,28.4"/>
	</g>
	<g transform="matrix(0.621328,-0.783551,-0.783551,-0.621328,610.279,447.294)">
		<path class="st0" d="M-263.6-179.1c-18.5,0-33.6,15-33.6,33.5c0,18.5,15,33.6,33.6,33.6c18.5,0,33.5-15,33.5-33.5
			S-245-179.1-263.6-179.1"/>
	</g>
	<g transform="matrix(0.621379,-0.78351,-0.78351,-0.621379,636.987,468.472)">
		<path class="st0" d="M-263.5-386.6c-18.5,0-33.5,15-33.5,33.5c0,18.5,15,33.6,33.5,33.6c18.5,0,33.5-15,33.5-33.5
			C-230-371.6-245-386.6-263.5-386.6"/>
	</g>
	<g transform="matrix(0.621263,-0.783602,-0.783602,-0.621263,663.694,489.648)">
		<path class="st0" d="M-263.6-594c-18.5,0-33.6,15-33.5,33.5c0,18.5,15,33.6,33.5,33.6c18.5,0,33.5-15,33.5-33.5
			C-230.1-579-245.1-594-263.6-594"/>
	</g>
	<g transform="matrix(0.621328,-0.783551,-0.783551,-0.621328,690.403,510.825)">
		<path class="st0" d="M-263.5-801.5c-18.5,0-33.6,15-33.6,33.5c0,18.5,15,33.6,33.6,33.6c18.5,0,33.5-15,33.5-33.5
			C-230-786.5-245-801.5-263.5-801.5"/>
	</g>
	<g transform="matrix(0.621263,-0.783602,-0.783602,-0.621263,542.749,422.75)">
		<path class="st0" d="M-401.9,235.8c-18.5,0-33.6,15-33.6,33.5s15,33.6,33.6,33.6s33.5-15,33.5-33.5S-383.4,235.8-401.9,235.8"/>
	</g>
	<g transform="matrix(0.621328,-0.783551,-0.783551,-0.621328,569.458,443.928)">
		<path class="st0" d="M-401.9,28.3c-18.5,0-33.6,15-33.6,33.5c0,18.5,15,33.6,33.6,33.6c18.5,0,33.5-15,33.5-33.5
			C-368.4,43.3-383.4,28.3-401.9,28.3"/>
	</g>
	<g transform="matrix(0.621314,-0.783562,-0.783562,-0.621314,596.166,465.105)">
		<path class="st0" d="M-401.9-179.2c-18.5,0-33.6,15-33.5,33.5c0,18.5,15,33.6,33.5,33.6c18.5,0,33.5-15,33.5-33.5
			C-368.3-164.1-383.4-179.1-401.9-179.2"/>
	</g>
	<g transform="matrix(0.621328,-0.783551,-0.783551,-0.621328,622.874,486.283)">
		<path class="st0" d="M-401.9-386.6c-18.5,0-33.5,15-33.5,33.5c0,18.5,15,33.6,33.5,33.6c18.5,0,33.5-15,33.5-33.5
			C-368.3-371.6-383.4-386.6-401.9-386.6"/>
	</g>
	<g transform="matrix(0.621328,-0.783551,-0.783551,-0.621328,649.582,507.46)">
		<path class="st0" d="M-401.9-594.1c-18.5,0-33.5,15-33.6,33.5c0,18.5,15,33.5,33.6,33.6c18.5,0,33.5-15,33.5-33.5
			C-368.3-579-383.3-594.1-401.9-594.1"/>
	</g>
	<g transform="matrix(0.621263,-0.783602,-0.783602,-0.621263,676.289,528.636)">
		<path class="st0" d="M-401.9-801.5c-18.5,0-33.6,15-33.6,33.5s15,33.6,33.6,33.6s33.5-15,33.5-33.5
			C-368.4-786.5-383.4-801.5-401.9-801.5"/>
	</g>
	<g transform="matrix(0.621328,-0.783551,-0.783551,-0.621328,555.344,461.74)">
		<path class="st0" d="M-540.2,28.3c-18.5,0-33.5,15-33.5,33.5c0,18.5,15,33.6,33.5,33.6c18.5,0,33.5-15,33.5-33.5
			C-506.7,43.3-521.7,28.3-540.2,28.3"/>
	</g>
	<g transform="matrix(0.621379,-0.78351,-0.78351,-0.621379,582.052,482.917)">
		<path class="st0" d="M-540.2-179.2c-18.5,0-33.5,15-33.6,33.5c0,18.5,15,33.6,33.6,33.6c18.5,0,33.5-15,33.5-33.5
			S-521.7-179.2-540.2-179.2"/>
	</g>
	<g transform="matrix(0.621263,-0.783602,-0.783602,-0.621263,608.76,504.093)">
		<path class="st0" d="M-540.2-386.6c-18.5,0-33.6,15-33.6,33.5c0,18.5,15,33.6,33.6,33.6s33.5-15,33.5-33.5
			C-506.7-371.6-521.7-386.6-540.2-386.6"/>
	</g>
	<g transform="matrix(0.621328,-0.783551,-0.783551,-0.621328,635.468,525.271)">
		<path class="st0" d="M-540.2-594.1c-18.5,0-33.6,15-33.5,33.5c0,18.5,15,33.5,33.5,33.6c18.5,0,33.5-15,33.5-33.5
			C-506.7-579.1-521.7-594.1-540.2-594.1"/>
	</g>
	<g transform="matrix(0.621328,-0.783551,-0.783551,-0.621328,541.231,479.551)">
		<path class="st0" d="M-678.5,28.2c-18.5,0-33.6,15-33.5,33.5c0,18.5,15,33.6,33.5,33.6c18.5,0,33.5-15,33.5-33.5
			C-645,43.2-660,28.2-678.5,28.2"/>
	</g>
	<g transform="matrix(0.621328,-0.783551,-0.783551,-0.621328,567.939,500.728)">
		<path class="st0" d="M-678.5-179.3c-18.5,0-33.6,15-33.6,33.5c0,18.5,15,33.6,33.6,33.6s33.5-15,33.5-33.5
			C-645-164.2-660-179.3-678.5-179.3"/>
	</g>
	<g transform="matrix(0.621328,-0.783551,-0.783551,-0.621328,594.647,521.905)">
		<path class="st0" d="M-678.5-386.7c-18.5,0-33.6,15-33.6,33.5c0,18.5,15,33.6,33.6,33.6c18.5,0,33.5-15,33.5-33.5
			C-645-371.7-660-386.7-678.5-386.7"/>
	</g>
	<g transform="matrix(0.621328,-0.783551,-0.783551,-0.621328,621.354,543.082)">
		<path class="st0" d="M-678.5-594.2c-18.5,0-33.6,15-33.6,33.5c0,18.5,15,33.6,33.6,33.6s33.5-15,33.5-33.5
			C-645-579.1-660-594.2-678.5-594.2"/>
	</g>
</g>
</svg>
