<?xml version="1.0" encoding="UTF-8" standalone="no"?>
<!DOCTYPE svg PUBLIC "-//W3C//DTD SVG 1.1//EN" "http://www.w3.org/Graphics/SVG/1.1/DTD/svg11.dtd">
<svg width="100%" height="100%" viewBox="0 0 200 200" version="1.1" xmlns="http://www.w3.org/2000/svg" xmlns:xlink="http://www.w3.org/1999/xlink" xml:space="preserve" xmlns:serif="http://www.serif.com/" style="fill-rule:evenodd;clip-rule:evenodd;stroke-linejoin:round;stroke-miterlimit:2;">
    <g transform="matrix(1,0,0,1,-537.435,-343.35)">
        <clipPath id="_clip1">
            <path d="M561.762,383.347C528.635,425.154 535.66,485.91 577.453,519.047C619.246,552.186 679.98,545.158 713.108,503.352C746.234,461.545 739.209,400.79 697.416,367.651C679.67,353.58 658.511,346.751 637.498,346.752C609.025,346.752 580.823,359.293 561.762,383.347Z" clip-rule="nonzero"/>
        </clipPath>
        <g clip-path="url(#_clip1)">
            <g transform="matrix(0.621379,-0.78351,-0.78351,-0.621379,680.846,358.238)">
                <path d="M-3.709,-1.793C-6.324,-1.794 -8.443,0.325 -8.443,2.939C-8.444,5.553 -6.324,7.674 -3.709,7.675C-1.095,7.677 1.025,5.557 1.025,2.943C1.025,0.328 -1.094,-1.792 -3.709,-1.793" style="fill:rgb(201,206,244);fill-rule:nonzero;"/>
            </g>
            <g transform="matrix(0.621328,-0.783551,-0.783551,-0.621328,707.554,379.415)">
                <path d="M-3.709,-1.793C-6.324,-1.793 -8.445,0.326 -8.444,2.94C-8.444,5.554 -6.324,7.675 -3.709,7.676C-1.094,7.677 1.025,5.558 1.024,2.944C1.025,0.329 -1.094,-1.791 -3.709,-1.793" style="fill:rgb(201,206,244);fill-rule:nonzero;"/>
            </g>
            <g transform="matrix(0.621328,-0.783551,-0.783551,-0.621328,734.262,400.592)">
                <path d="M-3.709,-1.793C-6.325,-1.795 -8.444,0.325 -8.444,2.939C-8.444,5.553 -6.325,7.674 -3.709,7.675C-1.095,7.676 1.024,5.557 1.024,2.943C1.024,0.328 -1.095,-1.792 -3.709,-1.793" style="fill:rgb(201,206,244);fill-rule:nonzero;"/>
            </g>
            <g transform="matrix(0.621263,-0.783602,-0.783602,-0.621263,640.024,354.871)">
                <path d="M-3.709,-1.793C-6.324,-1.794 -8.444,0.324 -8.443,2.939C-8.444,5.554 -6.323,7.674 -3.709,7.675C-1.093,7.676 1.025,5.556 1.025,2.941C1.025,0.328 -1.094,-1.793 -3.709,-1.793" style="fill:rgb(201,206,244);fill-rule:nonzero;"/>
            </g>
            <g transform="matrix(0.621379,-0.78351,-0.78351,-0.621379,666.732,376.05)">
                <path d="M-3.709,-1.793C-6.323,-1.793 -8.443,0.325 -8.443,2.939C-8.443,5.554 -6.324,7.674 -3.709,7.675C-1.095,7.677 1.025,5.557 1.025,2.943C1.025,0.328 -1.093,-1.791 -3.709,-1.793" style="fill:rgb(201,206,244);fill-rule:nonzero;"/>
            </g>
            <g transform="matrix(0.621263,-0.783602,-0.783602,-0.621263,693.44,397.225)">
                <path d="M-3.709,-1.793C-6.325,-1.795 -8.445,0.325 -8.444,2.939C-8.444,5.554 -6.324,7.674 -3.709,7.674C-1.094,7.675 1.025,5.556 1.024,2.942C1.024,0.327 -1.095,-1.792 -3.709,-1.793" style="fill:rgb(201,206,244);fill-rule:nonzero;"/>
            </g>
            <g transform="matrix(0.621328,-0.783551,-0.783551,-0.621328,720.149,418.403)">
                <path d="M-3.709,-1.793C-6.324,-1.794 -8.444,0.325 -8.444,2.939C-8.444,5.554 -6.324,7.675 -3.709,7.675C-1.095,7.677 1.024,5.557 1.024,2.943C1.025,0.329 -1.095,-1.791 -3.709,-1.793" style="fill:rgb(201,206,244);fill-rule:nonzero;"/>
            </g>
            <g transform="matrix(0.621328,-0.783551,-0.783551,-0.621328,599.203,351.506)">
                <path d="M-3.709,-1.793C-6.324,-1.794 -8.444,0.325 -8.444,2.939C-8.444,5.554 -6.324,7.674 -3.709,7.676C-1.095,7.676 1.025,5.557 1.025,2.943C1.024,0.328 -1.094,-1.792 -3.709,-1.793" style="fill:rgb(201,206,244);fill-rule:nonzero;"/>
            </g>
            <g transform="matrix(0.621328,-0.783551,-0.783551,-0.621328,625.911,372.683)">
                <path d="M-3.709,-1.793C-6.324,-1.794 -8.443,0.325 -8.443,2.939C-8.444,5.553 -6.324,7.674 -3.709,7.676C-1.094,7.677 1.025,5.558 1.025,2.942C1.025,0.328 -1.094,-1.792 -3.709,-1.793" style="fill:rgb(201,206,244);fill-rule:nonzero;"/>
            </g>
            <g transform="matrix(0.621328,-0.783551,-0.783551,-0.621328,652.619,393.861)">
                <path d="M-3.709,-1.793C-6.324,-1.794 -8.444,0.325 -8.443,2.939C-8.443,5.554 -6.324,7.675 -3.709,7.676C-1.094,7.677 1.025,5.556 1.025,2.943C1.026,0.328 -1.094,-1.792 -3.709,-1.793" style="fill:rgb(201,206,244);fill-rule:nonzero;"/>
            </g>
            <g transform="matrix(0.621328,-0.783551,-0.783551,-0.621328,679.327,415.038)">
                <path d="M-3.709,-1.793C-6.323,-1.793 -8.443,0.325 -8.444,2.94C-8.443,5.554 -6.324,7.674 -3.709,7.676C-1.094,7.677 1.025,5.558 1.025,2.943C1.025,0.329 -1.094,-1.792 -3.709,-1.793" style="fill:rgb(201,206,244);fill-rule:nonzero;"/>
            </g>
            <g transform="matrix(0.621263,-0.783602,-0.783602,-0.621263,706.034,436.214)">
                <path d="M-3.709,-1.793C-6.324,-1.794 -8.444,0.325 -8.443,2.939C-8.443,5.554 -6.323,7.674 -3.709,7.675C-1.094,7.676 1.026,5.556 1.025,2.942C1.025,0.327 -1.094,-1.792 -3.709,-1.793" style="fill:rgb(201,206,244);fill-rule:nonzero;"/>
            </g>
            <g transform="matrix(0.621328,-0.783551,-0.783551,-0.621328,732.743,457.392)">
                <path d="M-3.709,-1.793C-6.323,-1.794 -8.444,0.325 -8.444,2.939C-8.443,5.554 -6.324,7.675 -3.709,7.676C-1.094,7.677 1.025,5.556 1.025,2.943C1.026,0.328 -1.094,-1.792 -3.709,-1.793" style="fill:rgb(201,206,244);fill-rule:nonzero;"/>
            </g>
            <g transform="matrix(0.621314,-0.783562,-0.783562,-0.621314,585.089,369.317)">
                <path d="M-3.709,-1.793C-6.324,-1.794 -8.444,0.324 -8.443,2.939C-8.444,5.553 -6.323,7.674 -3.709,7.674C-1.094,7.676 1.026,5.557 1.025,2.942C1.026,0.328 -1.094,-1.792 -3.709,-1.793" style="fill:rgb(201,206,244);fill-rule:nonzero;"/>
            </g>
            <g transform="matrix(0.621328,-0.783551,-0.783551,-0.621328,611.798,390.495)">
                <path d="M-3.709,-1.793C-6.323,-1.793 -8.443,0.325 -8.443,2.939C-8.443,5.554 -6.324,7.674 -3.709,7.676C-1.094,7.677 1.025,5.558 1.025,2.943C1.025,0.328 -1.094,-1.791 -3.709,-1.793" style="fill:rgb(201,206,244);fill-rule:nonzero;"/>
            </g>
            <g transform="matrix(0.621263,-0.783602,-0.783602,-0.621263,638.506,411.671)">
                <path d="M-3.71,-1.793C-6.325,-1.794 -8.444,0.325 -8.444,2.94C-8.444,5.553 -6.324,7.675 -3.709,7.675C-1.094,7.676 1.025,5.557 1.024,2.942C1.024,0.328 -1.095,-1.793 -3.71,-1.793" style="fill:rgb(201,206,244);fill-rule:nonzero;"/>
            </g>
            <g transform="matrix(0.621328,-0.783551,-0.783551,-0.621328,665.214,432.849)">
                <path d="M-3.709,-1.793C-6.324,-1.794 -8.444,0.325 -8.444,2.939C-8.444,5.554 -6.324,7.675 -3.709,7.676C-1.094,7.677 1.025,5.557 1.025,2.943C1.025,0.329 -1.094,-1.792 -3.709,-1.793" style="fill:rgb(201,206,244);fill-rule:nonzero;"/>
            </g>
            <g transform="matrix(0.621379,-0.78351,-0.78351,-0.621379,691.921,454.026)">
                <path d="M-3.709,-1.793C-6.324,-1.794 -8.443,0.325 -8.443,2.939C-8.443,5.554 -6.324,7.674 -3.709,7.675C-1.095,7.677 1.025,5.557 1.025,2.943C1.025,0.328 -1.093,-1.791 -3.709,-1.793" style="fill:rgb(201,206,244);fill-rule:nonzero;"/>
            </g>
            <g transform="matrix(0.621263,-0.783602,-0.783602,-0.621263,718.629,475.202)">
                <path d="M-3.71,-1.793C-6.325,-1.794 -8.444,0.325 -8.444,2.939C-8.444,5.553 -6.324,7.675 -3.709,7.675C-1.094,7.676 1.025,5.556 1.024,2.942C1.024,0.328 -1.095,-1.793 -3.71,-1.793" style="fill:rgb(201,206,244);fill-rule:nonzero;"/>
            </g>
            <g transform="matrix(0.621314,-0.783562,-0.783562,-0.621314,570.977,387.128)">
                <path d="M-3.709,-1.793C-6.324,-1.794 -8.444,0.325 -8.443,2.939C-8.444,5.554 -6.324,7.674 -3.709,7.675C-1.094,7.676 1.025,5.558 1.025,2.942C1.025,0.328 -1.094,-1.792 -3.709,-1.793" style="fill:rgb(201,206,244);fill-rule:nonzero;"/>
            </g>
            <g transform="matrix(0.621263,-0.783602,-0.783602,-0.621263,597.684,408.305)">
                <path d="M-3.709,-1.793C-6.324,-1.794 -8.444,0.324 -8.443,2.939C-8.443,5.553 -6.323,7.674 -3.709,7.675C-1.093,7.676 1.025,5.556 1.025,2.941C1.025,0.328 -1.094,-1.793 -3.709,-1.793" style="fill:rgb(201,206,244);fill-rule:nonzero;"/>
            </g>
            <g transform="matrix(0.621328,-0.783551,-0.783551,-0.621328,624.392,429.483)">
                <path d="M-3.709,-1.793C-6.324,-1.794 -8.444,0.325 -8.444,2.939C-8.443,5.554 -6.324,7.674 -3.709,7.676C-1.095,7.676 1.025,5.557 1.025,2.943C1.024,0.328 -1.094,-1.792 -3.709,-1.793" style="fill:rgb(201,206,244);fill-rule:nonzero;"/>
            </g>
            <g transform="matrix(0.621263,-0.783602,-0.783602,-0.621263,651.1,450.659)">
                <path d="M-3.709,-1.793C-6.324,-1.794 -8.444,0.324 -8.444,2.939C-8.444,5.554 -6.324,7.674 -3.709,7.675C-1.094,7.676 1.025,5.557 1.024,2.942C1.025,0.328 -1.095,-1.793 -3.709,-1.793" style="fill:rgb(201,206,244);fill-rule:nonzero;"/>
            </g>
            <g transform="matrix(0.621263,-0.783602,-0.783602,-0.621263,677.807,471.837)">
                <path d="M-3.709,-1.793C-6.324,-1.794 -8.444,0.325 -8.443,2.939C-8.443,5.553 -6.323,7.673 -3.709,7.675C-1.094,7.675 1.025,5.556 1.025,2.942C1.026,0.327 -1.094,-1.792 -3.709,-1.793" style="fill:rgb(201,206,244);fill-rule:nonzero;"/>
            </g>
            <g transform="matrix(0.621328,-0.783551,-0.783551,-0.621328,704.516,493.014)">
                <path d="M-3.709,-1.793C-6.324,-1.794 -8.444,0.325 -8.444,2.939C-8.443,5.554 -6.324,7.674 -3.709,7.676C-1.095,7.676 1.025,5.556 1.024,2.943C1.024,0.328 -1.094,-1.792 -3.709,-1.793" style="fill:rgb(201,206,244);fill-rule:nonzero;"/>
            </g>
            <g transform="matrix(0.621328,-0.783551,-0.783551,-0.621328,556.863,404.94)">
                <path d="M-3.709,-1.793C-6.323,-1.793 -8.443,0.325 -8.443,2.939C-8.443,5.554 -6.324,7.674 -3.709,7.676C-1.094,7.677 1.025,5.558 1.025,2.943C1.025,0.328 -1.094,-1.791 -3.709,-1.793" style="fill:rgb(201,206,244);fill-rule:nonzero;"/>
            </g>
            <g transform="matrix(0.621328,-0.783551,-0.783551,-0.621328,583.571,426.116)">
                <path d="M-3.709,-1.793C-6.324,-1.794 -8.444,0.325 -8.444,2.939C-8.444,5.553 -6.324,7.674 -3.709,7.676C-1.095,7.676 1.025,5.557 1.025,2.943C1.024,0.328 -1.095,-1.792 -3.709,-1.793" style="fill:rgb(201,206,244);fill-rule:nonzero;"/>
            </g>
            <g transform="matrix(0.621328,-0.783551,-0.783551,-0.621328,610.279,447.294)">
                <path d="M-3.709,-1.793C-6.324,-1.794 -8.444,0.326 -8.444,2.939C-8.444,5.554 -6.324,7.675 -3.709,7.676C-1.094,7.677 1.025,5.557 1.025,2.943C1.025,0.329 -1.094,-1.792 -3.709,-1.793" style="fill:rgb(201,206,244);fill-rule:nonzero;"/>
            </g>
            <g transform="matrix(0.621379,-0.78351,-0.78351,-0.621379,636.987,468.472)">
                <path d="M-3.709,-1.793C-6.323,-1.793 -8.443,0.325 -8.443,2.939C-8.443,5.554 -6.324,7.674 -3.709,7.675C-1.095,7.677 1.025,5.557 1.025,2.943C1.025,0.328 -1.093,-1.791 -3.709,-1.793" style="fill:rgb(201,206,244);fill-rule:nonzero;"/>
            </g>
            <g transform="matrix(0.621263,-0.783602,-0.783602,-0.621263,663.694,489.648)">
                <path d="M-3.709,-1.793C-6.324,-1.794 -8.444,0.325 -8.443,2.939C-8.443,5.554 -6.323,7.674 -3.709,7.675C-1.094,7.676 1.025,5.557 1.025,2.942C1.025,0.328 -1.094,-1.792 -3.709,-1.793" style="fill:rgb(201,206,244);fill-rule:nonzero;"/>
            </g>
            <g transform="matrix(0.621328,-0.783551,-0.783551,-0.621328,690.403,510.825)">
                <path d="M-3.709,-1.793C-6.324,-1.794 -8.444,0.326 -8.444,2.939C-8.443,5.554 -6.324,7.674 -3.709,7.676C-1.094,7.677 1.025,5.556 1.025,2.943C1.024,0.328 -1.094,-1.792 -3.709,-1.793" style="fill:rgb(201,206,244);fill-rule:nonzero;"/>
            </g>
            <g transform="matrix(0.621263,-0.783602,-0.783602,-0.621263,542.749,422.75)">
                <path d="M-3.709,-1.793C-6.324,-1.794 -8.444,0.324 -8.444,2.939C-8.444,5.554 -6.324,7.674 -3.709,7.675C-1.094,7.676 1.025,5.557 1.025,2.942C1.025,0.327 -1.095,-1.793 -3.709,-1.793" style="fill:rgb(201,206,244);fill-rule:nonzero;"/>
            </g>
            <g transform="matrix(0.621328,-0.783551,-0.783551,-0.621328,569.458,443.928)">
                <path d="M-3.709,-1.793C-6.324,-1.794 -8.444,0.325 -8.444,2.939C-8.444,5.554 -6.324,7.674 -3.709,7.676C-1.095,7.676 1.025,5.557 1.025,2.943C1.024,0.328 -1.094,-1.792 -3.709,-1.793" style="fill:rgb(201,206,244);fill-rule:nonzero;"/>
            </g>
            <g transform="matrix(0.621314,-0.783562,-0.783562,-0.621314,596.166,465.105)">
                <path d="M-3.709,-1.793C-6.324,-1.794 -8.444,0.325 -8.443,2.939C-8.444,5.554 -6.324,7.674 -3.709,7.675C-1.094,7.676 1.025,5.558 1.025,2.942C1.025,0.328 -1.094,-1.792 -3.709,-1.793" style="fill:rgb(201,206,244);fill-rule:nonzero;"/>
            </g>
            <g transform="matrix(0.621328,-0.783551,-0.783551,-0.621328,622.874,486.283)">
                <path d="M-3.709,-1.793C-6.323,-1.793 -8.443,0.325 -8.443,2.94C-8.443,5.554 -6.323,7.675 -3.709,7.676C-1.094,7.677 1.025,5.558 1.025,2.943C1.025,0.328 -1.094,-1.791 -3.709,-1.793" style="fill:rgb(201,206,244);fill-rule:nonzero;"/>
            </g>
            <g transform="matrix(0.621328,-0.783551,-0.783551,-0.621328,649.582,507.46)">
                <path d="M-3.709,-1.793C-6.323,-1.793 -8.443,0.325 -8.444,2.94C-8.443,5.554 -6.324,7.674 -3.709,7.676C-1.094,7.677 1.025,5.558 1.025,2.943C1.025,0.329 -1.094,-1.791 -3.709,-1.793" style="fill:rgb(201,206,244);fill-rule:nonzero;"/>
            </g>
            <g transform="matrix(0.621263,-0.783602,-0.783602,-0.621263,676.289,528.636)">
                <path d="M-3.709,-1.793C-6.324,-1.794 -8.444,0.324 -8.444,2.939C-8.444,5.554 -6.324,7.674 -3.709,7.675C-1.094,7.676 1.025,5.557 1.024,2.942C1.025,0.328 -1.095,-1.793 -3.709,-1.793" style="fill:rgb(201,206,244);fill-rule:nonzero;"/>
            </g>
            <g transform="matrix(0.621328,-0.783551,-0.783551,-0.621328,555.344,461.74)">
                <path d="M-3.709,-1.793C-6.323,-1.793 -8.443,0.325 -8.443,2.94C-8.443,5.554 -6.323,7.675 -3.709,7.676C-1.094,7.677 1.025,5.558 1.025,2.943C1.026,0.329 -1.094,-1.791 -3.709,-1.793" style="fill:rgb(201,206,244);fill-rule:nonzero;"/>
            </g>
            <g transform="matrix(0.621379,-0.78351,-0.78351,-0.621379,582.052,482.917)">
                <path d="M-3.709,-1.793C-6.323,-1.793 -8.443,0.325 -8.444,2.939C-8.443,5.554 -6.324,7.674 -3.709,7.675C-1.095,7.677 1.025,5.558 1.025,2.943C1.025,0.328 -1.093,-1.791 -3.709,-1.793" style="fill:rgb(201,206,244);fill-rule:nonzero;"/>
            </g>
            <g transform="matrix(0.621263,-0.783602,-0.783602,-0.621263,608.76,504.093)">
                <path d="M-3.709,-1.793C-6.324,-1.794 -8.444,0.324 -8.444,2.939C-8.444,5.553 -6.324,7.674 -3.709,7.675C-1.094,7.676 1.025,5.557 1.025,2.942C1.025,0.328 -1.095,-1.793 -3.709,-1.793" style="fill:rgb(201,206,244);fill-rule:nonzero;"/>
            </g>
            <g transform="matrix(0.621328,-0.783551,-0.783551,-0.621328,635.468,525.271)">
                <path d="M-3.709,-1.793C-6.324,-1.794 -8.444,0.325 -8.443,2.94C-8.443,5.554 -6.324,7.674 -3.709,7.676C-1.094,7.677 1.025,5.557 1.025,2.943C1.024,0.328 -1.094,-1.792 -3.709,-1.793" style="fill:rgb(201,206,244);fill-rule:nonzero;"/>
            </g>
            <g transform="matrix(0.621328,-0.783551,-0.783551,-0.621328,541.231,479.551)">
                <path d="M-3.709,-1.793C-6.324,-1.794 -8.444,0.324 -8.443,2.939C-8.444,5.553 -6.323,7.674 -3.709,7.676C-1.094,7.676 1.025,5.557 1.025,2.942C1.025,0.329 -1.094,-1.792 -3.709,-1.793" style="fill:rgb(201,206,244);fill-rule:nonzero;"/>
            </g>
            <g transform="matrix(0.621328,-0.783551,-0.783551,-0.621328,567.939,500.728)">
                <path d="M-3.709,-1.793C-6.324,-1.794 -8.444,0.325 -8.444,2.939C-8.443,5.554 -6.324,7.675 -3.709,7.676C-1.094,7.677 1.025,5.557 1.025,2.943C1.026,0.328 -1.094,-1.792 -3.709,-1.793" style="fill:rgb(201,206,244);fill-rule:nonzero;"/>
            </g>
            <g transform="matrix(0.621328,-0.783551,-0.783551,-0.621328,594.647,521.905)">
                <path d="M-3.709,-1.793C-6.324,-1.794 -8.444,0.325 -8.444,2.939C-8.444,5.554 -6.324,7.674 -3.709,7.676C-1.095,7.676 1.025,5.557 1.025,2.943C1.024,0.328 -1.094,-1.792 -3.709,-1.793" style="fill:rgb(201,206,244);fill-rule:nonzero;"/>
            </g>
            <g transform="matrix(0.621328,-0.783551,-0.783551,-0.621328,621.354,543.082)">
                <path d="M-3.709,-1.793C-6.324,-1.794 -8.444,0.324 -8.444,2.939C-8.444,5.553 -6.324,7.674 -3.709,7.675C-1.094,7.676 1.025,5.557 1.024,2.943C1.025,0.328 -1.094,-1.792 -3.709,-1.793" style="fill:rgb(201,206,244);fill-rule:nonzero;"/>
            </g>
        </g>
    </g>
</svg>
