<?xml version="1.0" encoding="utf-8"?>
<!-- Generator: Adobe Illustrator 26.0.3, SVG Export Plug-In . SVG Version: 6.00 Build 0)  -->
<svg version="1.1" id="Warstwa_1" xmlns:serif="http://www.serif.com/"
	 xmlns="http://www.w3.org/2000/svg" xmlns:xlink="http://www.w3.org/1999/xlink" x="0px" y="0px" viewBox="0 0 650 650"
	 style="enable-background:new 0 0 650 650;" xml:space="preserve">
<style type="text/css">
	.st0{fill:#C9CEF4;}
</style>
<g>
	<g transform="matrix(0.621379,-0.78351,-0.78351,-0.621379,680.846,358.238)">
		<path class="st0" d="M91,349.4c-7.7,0-14,6.3-14,14s6.3,14,14,14s14-6.3,14-14C105.1,355.6,98.8,349.4,91,349.4"/>
	</g>
	<g transform="matrix(0.621328,-0.783551,-0.783551,-0.621328,707.554,379.415)">
		<path class="st0" d="M91,282.5c-7.7,0-14,6.3-14,14s6.3,14,14,14c7.7,0,14-6.3,14-14C105.1,288.7,98.8,282.5,91,282.5"/>
	</g>
	<g transform="matrix(0.621328,-0.783551,-0.783551,-0.621328,734.262,400.592)">
		<path class="st0" d="M91,215.5c-7.7,0-14,6.3-14,14c0,7.7,6.3,14,14,14c7.7,0,14-6.3,14-14C105.1,221.8,98.8,215.5,91,215.5"/>
	</g>
	<g transform="matrix(0.621263,-0.783602,-0.783602,-0.621263,640.024,354.871)">
		<path class="st0" d="M46.5,416.2c-7.7,0-14,6.3-14,14c0,7.7,6.3,14,14,14s14-6.3,14-14C60.5,422.5,54.2,416.2,46.5,416.2"/>
	</g>
	<g transform="matrix(0.621379,-0.78351,-0.78351,-0.621379,666.732,376.05)">
		<path class="st0" d="M46.4,349.3c-7.7,0-14,6.3-14,14s6.3,14,14,14s14-6.3,14-14C60.5,355.6,54.1,349.3,46.4,349.3"/>
	</g>
	<g transform="matrix(0.621263,-0.783602,-0.783602,-0.621263,693.44,397.225)">
		<path class="st0" d="M46.5,282.4c-7.7,0-14,6.3-14,14s6.3,14,14,14c7.7,0,14-6.3,14-14C60.5,288.7,54.2,282.4,46.5,282.4"/>
	</g>
	<g transform="matrix(0.621328,-0.783551,-0.783551,-0.621328,720.149,418.403)">
		<path class="st0" d="M46.4,215.5c-7.7,0-14,6.3-14,14s6.3,14,14,14c7.7,0,14-6.3,14-14C60.5,221.8,54.2,215.5,46.4,215.5"/>
	</g>
	<g transform="matrix(0.621328,-0.783551,-0.783551,-0.621328,599.203,351.506)">
		<path class="st0" d="M1.8,483.2c-7.7,0-14,6.3-14,14s6.3,14,14,14c7.7,0,14-6.3,14-14C15.8,489.4,9.6,483.2,1.8,483.2"/>
	</g>
	<g transform="matrix(0.621328,-0.783551,-0.783551,-0.621328,625.911,372.683)">
		<path class="st0" d="M1.8,416.2c-7.7,0-14,6.3-14,14s6.3,14,14,14s14-6.3,14-14C15.8,422.5,9.6,416.2,1.8,416.2"/>
	</g>
	<g transform="matrix(0.621328,-0.783551,-0.783551,-0.621328,652.619,393.861)">
		<path class="st0" d="M1.8,349.3c-7.7,0-14,6.3-14,14c0,7.7,6.3,14,14,14s14-6.3,14-14C15.8,355.6,9.6,349.3,1.8,349.3"/>
	</g>
	<g transform="matrix(0.621328,-0.783551,-0.783551,-0.621328,679.327,415.038)">
		<path class="st0" d="M1.8,282.4c-7.7,0-14,6.3-14,14c0,7.7,6.3,14,14,14c7.7,0,14-6.3,14-14C15.8,288.7,9.6,282.4,1.8,282.4"/>
	</g>
	<g transform="matrix(0.621263,-0.783602,-0.783602,-0.621263,706.034,436.214)">
		<path class="st0" d="M1.8,215.5c-7.7,0-14,6.3-14,14c0,7.7,6.3,14,14,14s14-6.3,14-14C15.9,221.8,9.6,215.5,1.8,215.5"/>
	</g>
	<g transform="matrix(0.621328,-0.783551,-0.783551,-0.621328,732.743,457.392)">
		<path class="st0" d="M1.8,148.6c-7.7,0-14,6.3-14,14s6.3,14,14,14s14-6.3,14-14C15.9,154.9,9.6,148.6,1.8,148.6"/>
	</g>
	<g transform="matrix(0.621314,-0.783562,-0.783562,-0.621314,585.089,369.317)">
		<path class="st0" d="M-42.8,483.1c-7.7,0-14,6.3-14,14c0,7.7,6.3,14,14,14s14-6.3,14-14C-28.8,489.4-35,483.1-42.8,483.1"/>
	</g>
	<g transform="matrix(0.621328,-0.783551,-0.783551,-0.621328,611.798,390.495)">
		<path class="st0" d="M-42.8,416.2c-7.7,0-14,6.3-14,14s6.3,14,14,14s14-6.3,14-14S-35,416.2-42.8,416.2"/>
	</g>
	<g transform="matrix(0.621263,-0.783602,-0.783602,-0.621263,638.506,411.671)">
		<path class="st0" d="M-42.8,349.3c-7.7,0-14,6.3-14,14c0,7.7,6.3,14,14,14c7.7,0,14-6.3,14-14C-28.7,355.6-35,349.3-42.8,349.3"/>
	</g>
	<g transform="matrix(0.621328,-0.783551,-0.783551,-0.621328,665.214,432.849)">
		<path class="st0" d="M-42.8,282.4c-7.7,0-14,6.3-14,14s6.3,14,14,14s14-6.3,14-14C-28.8,288.7-35,282.4-42.8,282.4"/>
	</g>
	<g transform="matrix(0.621379,-0.78351,-0.78351,-0.621379,691.921,454.026)">
		<path class="st0" d="M-42.8,215.5c-7.7,0-14,6.3-14,14c0,7.7,6.3,14,14,14c7.7,0,14-6.3,14-14C-28.8,221.8-35,215.5-42.8,215.5"/>
	</g>
	<g transform="matrix(0.621263,-0.783602,-0.783602,-0.621263,718.629,475.202)">
		<path class="st0" d="M-42.8,148.6c-7.7,0-14,6.3-14,14s6.3,14,14,14c7.7,0,14-6.3,14-14C-28.7,154.8-35,148.6-42.8,148.6"/>
	</g>
	<g transform="matrix(0.621314,-0.783562,-0.783562,-0.621314,570.977,387.128)">
		<path class="st0" d="M-87.4,483.1c-7.7,0-14,6.3-14,14c0,7.7,6.3,14,14,14s14-6.3,14-14C-73.4,489.4-79.6,483.1-87.4,483.1"/>
	</g>
	<g transform="matrix(0.621263,-0.783602,-0.783602,-0.621263,597.684,408.305)">
		<path class="st0" d="M-87.4,416.2c-7.7,0-14,6.3-14,14c0,7.7,6.3,14,14,14s14-6.3,14-14C-73.3,422.5-79.6,416.2-87.4,416.2"/>
	</g>
	<g transform="matrix(0.621328,-0.783551,-0.783551,-0.621328,624.392,429.483)">
		<path class="st0" d="M-87.4,349.3c-7.7,0-14,6.3-14,14c0,7.7,6.3,14,14,14c7.7,0,14-6.3,14-14C-73.4,355.6-79.6,349.3-87.4,349.3"
			/>
	</g>
	<g transform="matrix(0.621263,-0.783602,-0.783602,-0.621263,651.1,450.659)">
		<path class="st0" d="M-87.4,282.4c-7.7,0-14,6.3-14,14s6.3,14,14,14c7.7,0,14-6.3,14-14C-73.3,288.7-79.6,282.4-87.4,282.4"/>
	</g>
	<g transform="matrix(0.621263,-0.783602,-0.783602,-0.621263,677.807,471.837)">
		<path class="st0" d="M-87.4,215.5c-7.7,0-14,6.3-14,14c0,7.7,6.3,14,14,14c7.7,0,14-6.3,14-14C-73.3,221.8-79.6,215.5-87.4,215.5"
			/>
	</g>
	<g transform="matrix(0.621328,-0.783551,-0.783551,-0.621328,704.516,493.014)">
		<path class="st0" d="M-87.4,148.6c-7.7,0-14,6.3-14,14c0,7.7,6.3,14,14,14c7.7,0,14-6.3,14-14C-73.4,154.8-79.6,148.6-87.4,148.6"
			/>
	</g>
	<g transform="matrix(0.621328,-0.783551,-0.783551,-0.621328,556.863,404.94)">
		<path class="st0" d="M-132,483.1c-7.7,0-14,6.3-14,14s6.3,14,14,14c7.7,0,14-6.3,14-14S-124.3,483.1-132,483.1"/>
	</g>
	<g transform="matrix(0.621328,-0.783551,-0.783551,-0.621328,583.571,426.116)">
		<path class="st0" d="M-132,416.2c-7.7,0-14,6.3-14,14s6.3,14,14,14c7.7,0,14-6.3,14-14C-118,422.5-124.2,416.2-132,416.2"/>
	</g>
	<g transform="matrix(0.621328,-0.783551,-0.783551,-0.621328,610.279,447.294)">
		<path class="st0" d="M-132,349.3c-7.7,0-14,6.3-14,14s6.3,14,14,14c7.7,0,14-6.3,14-14C-118,355.6-124.2,349.3-132,349.3"/>
	</g>
	<g transform="matrix(0.621379,-0.78351,-0.78351,-0.621379,636.987,468.472)">
		<path class="st0" d="M-132,282.3c-7.7,0-14,6.3-14,14s6.3,14,14,14s14-6.3,14-14C-118,288.6-124.3,282.3-132,282.3"/>
	</g>
	<g transform="matrix(0.621263,-0.783602,-0.783602,-0.621263,663.694,489.648)">
		<path class="st0" d="M-132,215.5c-7.7,0-14,6.3-14,14c0,7.7,6.3,14,14,14c7.7,0,14-6.3,14-14C-118,221.7-124.2,215.5-132,215.5"/>
	</g>
	<g transform="matrix(0.621328,-0.783551,-0.783551,-0.621328,690.403,510.825)">
		<path class="st0" d="M-132,148.5c-7.7,0-14,6.3-14,14s6.3,14,14,14c7.7,0,14-6.3,14-14C-118,154.8-124.2,148.5-132,148.5"/>
	</g>
	<g transform="matrix(0.621263,-0.783602,-0.783602,-0.621263,542.749,422.75)">
		<path class="st0" d="M-176.6,483.1c-7.7,0-14,6.3-14,14c0,7.7,6.3,14,14,14c7.8,0,14-6.3,14-14
			C-162.6,489.4-168.9,483.1-176.6,483.1"/>
	</g>
	<g transform="matrix(0.621328,-0.783551,-0.783551,-0.621328,569.458,443.928)">
		<path class="st0" d="M-176.6,416.2c-7.7,0-14,6.3-14,14s6.3,14,14,14c7.7,0,14-6.3,14-14C-162.6,422.4-168.9,416.2-176.6,416.2"/>
	</g>
	<g transform="matrix(0.621314,-0.783562,-0.783562,-0.621314,596.166,465.105)">
		<path class="st0" d="M-176.6,349.2c-7.7,0-14,6.3-14,14c0,7.7,6.3,14,14,14c7.7,0,14-6.3,14-14
			C-162.6,355.6-168.9,349.3-176.6,349.2"/>
	</g>
	<g transform="matrix(0.621328,-0.783551,-0.783551,-0.621328,622.874,486.283)">
		<path class="st0" d="M-176.6,282.4c-7.7,0-14,6.3-14,14c0,7.7,6.3,14,14,14s14-6.3,14-14C-162.6,288.6-168.9,282.4-176.6,282.4"/>
	</g>
	<g transform="matrix(0.621328,-0.783551,-0.783551,-0.621328,649.582,507.46)">
		<path class="st0" d="M-176.6,215.4c-7.7,0-14,6.3-14,14c0,7.7,6.3,14,14,14c7.7,0,14-6.3,14-14
			C-162.6,221.7-168.8,215.4-176.6,215.4"/>
	</g>
	<g transform="matrix(0.621263,-0.783602,-0.783602,-0.621263,676.289,528.636)">
		<path class="st0" d="M-176.6,148.5c-7.7,0-14,6.3-14,14s6.3,14,14,14s14-6.3,14-14C-162.6,154.8-168.8,148.5-176.6,148.5"/>
	</g>
	<g transform="matrix(0.621328,-0.783551,-0.783551,-0.621328,555.344,461.74)">
		<path class="st0" d="M-221.2,416.2c-7.7,0-14,6.3-14,14s6.3,14,14,14s14-6.3,14-14C-207.2,422.4-213.5,416.2-221.2,416.2"/>
	</g>
	<g transform="matrix(0.621379,-0.78351,-0.78351,-0.621379,582.052,482.917)">
		<path class="st0" d="M-221.3,349.2c-7.7,0-14,6.3-14,14c0,7.7,6.3,14,14,14c7.7,0,14-6.3,14-14S-213.5,349.2-221.3,349.2"/>
	</g>
	<g transform="matrix(0.621263,-0.783602,-0.783602,-0.621263,608.76,504.093)">
		<path class="st0" d="M-221.2,282.4c-7.7,0-14,6.3-14,14s6.3,14,14,14s14-6.3,14-14C-207.2,288.6-213.5,282.4-221.2,282.4"/>
	</g>
	<g transform="matrix(0.621328,-0.783551,-0.783551,-0.621328,635.468,525.271)">
		<path class="st0" d="M-221.2,215.4c-7.7,0-14,6.3-14,14c0,7.7,6.3,14,14,14c7.7,0,14-6.3,14-14
			C-207.2,221.7-213.5,215.4-221.2,215.4"/>
	</g>
	<g transform="matrix(0.621328,-0.783551,-0.783551,-0.621328,541.231,479.551)">
		<path class="st0" d="M-265.8,416.1c-7.7,0-14,6.3-14,14c0,7.7,6.3,14,14,14s14-6.3,14-14C-251.8,422.4-258.1,416.1-265.8,416.1"/>
	</g>
	<g transform="matrix(0.621328,-0.783551,-0.783551,-0.621328,567.939,500.728)">
		<path class="st0" d="M-265.8,349.2c-7.7,0-14,6.3-14,14c0,7.7,6.3,14,14,14s14-6.3,14-14S-258.1,349.2-265.8,349.2"/>
	</g>
	<g transform="matrix(0.621328,-0.783551,-0.783551,-0.621328,594.647,521.905)">
		<path class="st0" d="M-265.8,282.3c-7.7,0-14,6.3-14,14c0,7.7,6.3,14,14,14c7.7,0,14-6.3,14-14
			C-251.8,288.6-258.1,282.3-265.8,282.3"/>
	</g>
	<g transform="matrix(0.621328,-0.783551,-0.783551,-0.621328,621.354,543.082)">
		<path class="st0" d="M-265.8,215.4c-7.7,0-14,6.3-14,14c0,7.7,6.3,14,14,14s14-6.3,14-14C-251.8,221.7-258.1,215.4-265.8,215.4"/>
	</g>
</g>
</svg>
