<?xml version="1.0" encoding="UTF-8" standalone="no"?>
<!DOCTYPE svg PUBLIC "-//W3C//DTD SVG 1.1//EN" "http://www.w3.org/Graphics/SVG/1.1/DTD/svg11.dtd">
<svg width="100%" height="100%" viewBox="0 0 383 241" version="1.1" xmlns="http://www.w3.org/2000/svg" xmlns:xlink="http://www.w3.org/1999/xlink" xml:space="preserve" xmlns:serif="http://www.serif.com/" style="fill-rule:evenodd;clip-rule:evenodd;stroke-linejoin:round;stroke-miterlimit:2;">
    <g transform="matrix(1,0,0,1,-1656.93,-425.726)">
        <g transform="matrix(1,0,0,1,1536.75,0)">
            <g opacity="0.5">
                <g transform="matrix(1,0,0,-1,0,768)">
                    <rect x="120.18" y="294.771" width="382.82" height="47.503" style="fill:rgb(201,206,244);"/>
                </g>
            </g>
        </g>
        <g transform="matrix(1,0,0,1,1536.75,0)">
            <g opacity="0.5">
                <g transform="matrix(1,0,0,-1,0,768)">
                    <rect x="120.18" y="230.502" width="382.82" height="47.503" style="fill:rgb(201,206,244);"/>
                </g>
            </g>
        </g>
        <g transform="matrix(1,0,0,1,1536.75,0)">
            <g opacity="0.5">
                <g transform="matrix(1,0,0,-1,0,768)">
                    <rect x="120.18" y="166.233" width="382.82" height="47.503" style="fill:rgb(201,206,244);"/>
                </g>
            </g>
        </g>
        <g transform="matrix(1,0,0,1,1536.75,0)">
            <g opacity="0.5">
                <g transform="matrix(1,0,0,-1,0,768.001)">
                    <rect x="120.18" y="101.965" width="382.82" height="47.503" style="fill:rgb(201,206,244);"/>
                </g>
            </g>
        </g>
        <g transform="matrix(1,0,0,1,1536.75,0)">
            <g transform="matrix(-1,0,0,1,947.32,130.955)">
                <rect x="458.291" y="303.154" width="30.738" height="30.737" style="fill:white;"/>
            </g>
        </g>
        <g transform="matrix(1,0,0,1,1536.75,0)">
            <g transform="matrix(-1,0,0,1,846.725,130.955)">
                <rect x="407.994" y="303.154" width="30.737" height="30.737" style="fill:white;"/>
            </g>
        </g>
        <g transform="matrix(1,0,0,1,1536.75,0)">
            <g transform="matrix(-1,0,0,1,947.32,259.493)">
                <rect x="458.291" y="238.885" width="30.738" height="30.737" style="fill:white;"/>
            </g>
        </g>
        <g transform="matrix(1,0,0,1,1536.75,0)">
            <g transform="matrix(-1,0,0,1,846.725,259.493)">
                <rect x="407.994" y="238.885" width="30.737" height="30.737" style="fill:white;"/>
            </g>
        </g>
        <g transform="matrix(1,0,0,1,1536.75,0)">
            <g transform="matrix(-1,0,0,1,947.32,388.031)">
                <rect x="458.291" y="174.616" width="30.738" height="30.737" style="fill:white;"/>
            </g>
        </g>
        <g transform="matrix(1,0,0,1,1536.75,0)">
            <g transform="matrix(-1,0,0,1,846.725,388.031)">
                <rect x="407.994" y="174.616" width="30.737" height="30.737" style="fill:white;"/>
            </g>
        </g>
        <g transform="matrix(1,0,0,1,1536.75,0)">
            <g transform="matrix(-1,0,0,1,947.32,516.568)">
                <rect x="458.291" y="110.347" width="30.738" height="30.738" style="fill:white;"/>
            </g>
        </g>
        <g transform="matrix(1,0,0,1,1536.75,0)">
            <g transform="matrix(-1,0,0,1,846.725,516.568)">
                <rect x="407.994" y="110.347" width="30.737" height="30.738" style="fill:white;"/>
            </g>
        </g>
        <g transform="matrix(1,0,0,1,1536.75,0)">
            <g transform="matrix(-1,0,0,1,494.642,111.394)">
                <rect x="134.152" y="322.714" width="226.338" height="11.178" style="fill:white;"/>
            </g>
        </g>
        <g transform="matrix(1,0,0,1,1536.75,0)">
            <g transform="matrix(-1,0,0,1,419.195,150.515)">
                <rect x="134.151" y="303.154" width="150.893" height="11.177" style="fill:white;"/>
            </g>
        </g>
        <g transform="matrix(1,0,0,1,1536.75,0)">
            <g transform="matrix(-1,0,0,1,494.642,239.933)">
                <rect x="134.152" y="258.445" width="226.338" height="11.177" style="fill:white;"/>
            </g>
        </g>
        <g transform="matrix(1,0,0,1,1536.75,0)">
            <g transform="matrix(-1,0,0,1,452.728,279.052)">
                <rect x="134.152" y="238.885" width="184.424" height="11.178" style="fill:white;"/>
            </g>
        </g>
        <g transform="matrix(1,0,0,1,1536.75,0)">
            <g transform="matrix(-1,0,0,1,408.019,368.47)">
                <rect x="134.152" y="194.176" width="139.715" height="11.178" style="fill:white;"/>
            </g>
        </g>
        <g transform="matrix(1,0,0,1,1536.75,0)">
            <g transform="matrix(-1,0,0,1,475.082,407.591)">
                <rect x="134.152" y="174.616" width="206.778" height="11.177" style="fill:white;"/>
            </g>
        </g>
        <g transform="matrix(1,0,0,1,1536.75,0)">
            <g transform="matrix(-1,0,0,1,494.642,497.008)">
                <rect x="134.152" y="129.907" width="226.338" height="11.178" style="fill:white;"/>
            </g>
        </g>
        <g transform="matrix(1,0,0,1,1536.75,0)">
            <g transform="matrix(-1,0,0,1,419.195,536.128)">
                <rect x="134.151" y="110.347" width="150.893" height="11.178" style="fill:white;"/>
            </g>
        </g>
        <g transform="matrix(1,0,0,1,1536.75,0)">
            <g transform="matrix(1,0,0,1,414.7,447.967)">
                <path d="M0,3.019L-2.012,8.048L9.053,14.084L22.131,-7.041L15.089,-11.065L8.047,10.061L0,3.019Z" style="fill:rgb(247,60,79);fill-rule:nonzero;"/>
            </g>
        </g>
        <g transform="matrix(1,0,0,1,1536.75,0)">
            <g transform="matrix(1,0,0,1,464.998,447.967)">
                <path d="M0,3.019L-2.012,8.048L9.054,14.084L22.131,-7.041L15.089,-11.065L8.047,10.061L0,3.019Z" style="fill:rgb(247,60,79);fill-rule:nonzero;"/>
            </g>
        </g>
        <g transform="matrix(1,0,0,1,1536.75,0)">
            <g transform="matrix(1,0,0,1,414.7,512.237)">
                <path d="M0,3.018L-2.012,8.048L9.053,14.083L22.131,-7.042L15.089,-11.065L8.047,10.06L0,3.018Z" style="fill:rgb(247,60,79);fill-rule:nonzero;"/>
            </g>
        </g>
        <g transform="matrix(1,0,0,1,1536.75,0)">
            <g transform="matrix(1,0,0,1,464.998,576.506)">
                <path d="M0,3.018L-2.012,8.047L9.054,14.083L22.131,-7.042L15.089,-11.065L8.047,10.059L0,3.018Z" style="fill:rgb(247,60,79);fill-rule:nonzero;"/>
            </g>
        </g>
    </g>
</svg>
