<?xml version="1.0" encoding="UTF-8" standalone="no"?>
<!DOCTYPE svg PUBLIC "-//W3C//DTD SVG 1.1//EN" "http://www.w3.org/Graphics/SVG/1.1/DTD/svg11.dtd">
<svg width="100%" height="100%" viewBox="0 0 260 230" version="1.1" xmlns="http://www.w3.org/2000/svg" xmlns:xlink="http://www.w3.org/1999/xlink" xml:space="preserve" xmlns:serif="http://www.serif.com/" style="fill-rule:evenodd;clip-rule:evenodd;stroke-linejoin:round;stroke-miterlimit:2;">
    <g transform="matrix(1,0,0,1,-3932.03,-926)">
        <g transform="matrix(1,0,0,1,3073.5,0)">
            <g transform="matrix(1,0,0,1,1087.08,1077.45)">
                <path d="M0,-71.832L-49.415,-121.249C-46.163,-124.5 -41.832,-128.83 -37.55,-133.11C-25.711,-121.439 0.839,-95.381 12.646,-83.769C9.119,-80.466 5.035,-76.711 0,-71.832M-7.402,-3.884C-10.377,-0.91 -15.189,-0.91 -18.163,-3.884L-39.685,-25.405C-42.655,-28.377 -47.474,-28.377 -50.445,-25.405C-53.417,-22.434 -53.417,-17.616 -50.445,-14.644L-28.924,6.877C-25.957,9.844 -25.957,14.671 -28.924,17.638C-31.898,20.611 -36.711,20.611 -39.685,17.638L-61.206,-3.884C-64.178,-6.855 -68.995,-6.855 -71.967,-3.884C-74.938,-0.912 -74.938,3.905 -71.967,6.877L-50.445,28.398C-47.479,31.365 -47.479,36.192 -50.445,39.158C-53.412,42.126 -58.239,42.126 -61.207,39.158L-82.729,17.637C-86.855,13.509 -92.185,11.299 -97.6,11C-97.903,5.375 -100.235,0.13 -104.249,-3.885C-108.264,-7.898 -113.509,-10.23 -119.134,-10.534C-119.433,-15.95 -121.643,-21.278 -125.771,-25.405C-129.784,-29.42 -135.03,-31.752 -140.655,-32.056C-140.954,-37.471 -143.164,-42.8 -147.292,-46.928C-156.192,-55.827 -170.674,-55.827 -179.574,-46.928L-184.839,-41.662L-190.104,-46.928C-193.077,-49.9 -193.062,-54.732 -190.086,-57.707L-147.062,-100.731C-138.392,-109.4 -126.503,-113.182 -114.944,-111.555C-114.966,-111.534 -114.988,-111.513 -115.01,-111.492L-136.531,-89.971C-145.432,-81.07 -145.431,-66.589 -136.531,-57.688C-127.61,-48.767 -113.171,-48.766 -104.248,-57.688L-93.487,-68.448C-84.566,-77.37 -70.127,-77.371 -61.205,-68.448L-7.4,-14.644C-4.429,-11.67 -4.429,-6.858 -7.402,-3.884M-71.968,60.681C-74.941,63.654 -79.754,63.655 -82.729,60.681L-88.109,55.3L-82.729,49.92C-80.843,48.034 -79.36,45.896 -78.273,43.614L-71.968,49.92C-68.994,52.895 -68.993,57.707 -71.968,60.681M-93.489,39.16L-114.903,60.573C-117.877,63.547 -122.688,63.547 -125.663,60.572C-128.63,57.605 -128.63,52.778 -125.663,49.812L-104.25,28.398L-104.248,28.397C-101.281,25.432 -96.457,25.433 -93.49,28.397C-93.489,28.397 -93.489,28.398 -93.489,28.399L-93.486,28.401C-90.522,31.368 -90.523,36.194 -93.489,39.16M-136.424,39.051C-139.392,42.017 -144.219,42.017 -147.185,39.051C-150.151,36.084 -150.151,31.257 -147.186,28.29L-125.771,6.877C-122.798,3.902 -117.985,3.902 -115.011,6.877C-112.037,9.852 -112.037,14.663 -115.011,17.638L-136.424,39.051ZM-157.946,17.529C-160.92,20.503 -165.732,20.504 -168.707,17.529C-171.674,14.563 -171.674,9.735 -168.707,6.769L-147.293,-14.644C-144.326,-17.611 -139.499,-17.61 -136.533,-14.644C-133.565,-11.678 -133.565,-6.851 -136.533,-3.884L-157.946,17.529ZM-179.468,-3.992C-182.436,-1.025 -187.263,-1.025 -190.229,-3.992C-193.203,-6.967 -193.202,-11.778 -190.229,-14.753L-168.815,-36.166C-165.85,-39.133 -161.021,-39.133 -158.055,-36.166C-155.081,-33.192 -155.081,-28.38 -158.055,-25.405L-179.468,-3.992ZM-197.504,-71.836C-202.537,-76.729 -206.579,-80.479 -210.057,-83.761C-198.249,-95.395 -171.547,-121.659 -159.954,-133.107C-155.673,-128.828 -151.341,-124.499 -148.091,-121.249L-197.504,-71.836ZM-95.114,-107.488C-81.034,-114.942 -62.76,-113.045 -50.445,-100.731L-7.421,-57.707C-4.447,-54.733 -4.428,-49.902 -7.401,-46.928L-12.782,-41.548L-50.445,-79.21C-65.314,-94.079 -89.38,-94.081 -104.25,-79.21L-115.011,-68.45C-117.984,-65.477 -122.797,-65.476 -125.771,-68.45C-128.737,-71.417 -128.738,-76.244 -125.771,-79.21C-101.911,-103.069 -101.767,-103.872 -95.114,-107.488M28.935,-89.082C25.503,-92.51 -26.215,-143.237 -32.195,-149.22C-35.166,-152.192 -39.983,-152.193 -42.955,-149.223C-52.705,-139.479 -65.555,-126.632 -65.555,-126.632C-65.778,-126.408 -65.98,-126.169 -66.173,-125.922C-76.985,-128.219 -88.468,-127.154 -98.781,-122.62C-107.791,-126.55 -117.909,-127.95 -127.689,-126.561C-128.914,-126.387 -130.123,-126.163 -131.321,-125.909C-131.77,-126.487 -130.001,-124.689 -154.551,-149.225C-157.522,-152.194 -162.34,-152.193 -165.311,-149.221C-171.284,-143.245 -222.938,-92.468 -226.327,-89.081C-229.299,-86.111 -229.301,-81.288 -226.327,-78.316C-221.038,-73.031 -215.146,-67.832 -206.45,-59.303C-208.95,-51.496 -207.201,-42.502 -200.866,-36.167L-195.601,-30.902L-200.988,-25.515C-209.91,-16.593 -209.911,-2.154 -200.988,6.769C-196.857,10.899 -191.523,13.109 -186.104,13.405C-185.809,18.825 -183.598,24.159 -179.467,28.29C-175.453,32.304 -170.207,34.637 -164.582,34.939C-164.283,40.356 -162.073,45.684 -157.945,49.812C-153.814,53.942 -148.481,56.152 -143.062,56.448C-142.766,61.868 -140.556,67.202 -136.424,71.332C-127.503,80.254 -113.064,80.255 -104.143,71.332L-98.87,66.06L-93.489,71.44C-84.568,80.361 -70.129,80.362 -61.207,71.44C-57.192,67.427 -54.86,62.181 -54.557,56.556C-49.142,56.257 -43.813,54.046 -39.685,49.919C-35.558,45.791 -33.348,40.462 -33.049,35.047C-27.424,34.743 -22.178,32.411 -18.164,28.397C-14.036,24.27 -11.826,18.94 -11.527,13.525C-5.902,13.222 -0.656,10.889 3.357,6.875C12.279,-2.046 12.279,-16.485 3.357,-25.407L-2.022,-30.787L3.358,-36.168C9.698,-42.508 11.438,-51.505 8.943,-59.301C17.659,-67.83 23.633,-73.02 28.933,-78.317C31.906,-81.288 31.908,-86.11 28.935,-89.082" style="fill:rgb(201,206,244);fill-rule:nonzero;"/>
            </g>
        </g>
    </g>
</svg>
