<?xml version="1.0" encoding="UTF-8" standalone="no"?>
<!DOCTYPE svg PUBLIC "-//W3C//DTD SVG 1.1//EN" "http://www.w3.org/Graphics/SVG/1.1/DTD/svg11.dtd">
<svg width="100%" height="100%" viewBox="0 0 203 267" version="1.1" xmlns="http://www.w3.org/2000/svg" xmlns:xlink="http://www.w3.org/1999/xlink" xml:space="preserve" xmlns:serif="http://www.serif.com/" style="fill-rule:evenodd;clip-rule:evenodd;stroke-linejoin:round;stroke-miterlimit:2;">
    <g transform="matrix(1,0,0,1,-3960.47,-85.4817)">
        <g transform="matrix(1,0,0,1,3073.5,0)">
            <g transform="matrix(1,0,0,1,1071.93,103.351)">
                <path d="M0,230.535C-1.471,231.997 -3.436,232.802 -5.533,232.802L-161.555,232.802C-165.855,232.803 -169.355,229.303 -169.355,225.002L-169.355,52.34C-169.355,48.038 -165.855,44.539 -161.555,44.539L-153.754,44.539L-153.754,52.34C-153.754,56.648 -150.261,60.14 -145.952,60.14L-21.137,60.14C-16.829,60.14 -13.336,56.648 -13.336,52.34L-13.336,44.539L-5.535,44.539C-1.233,44.539 2.266,48.038 2.266,52.34C2.266,52.34 2.266,175.298 2.268,225.07C2.268,227.14 1.463,229.081 0,230.535M-138.151,36.738C-138.151,32.436 -134.652,28.936 -130.351,28.936L-114.749,28.936C-111.169,28.936 -108.049,26.5 -107.181,23.028L-102.334,3.641C-101.465,0.163 -98.353,-2.267 -94.766,-2.267L-72.323,-2.267C-68.737,-2.267 -65.625,0.163 -64.756,3.641L-59.909,23.028C-59.041,26.5 -55.92,28.936 -52.341,28.936L-36.739,28.936C-32.438,28.936 -28.937,32.436 -28.937,36.738L-28.937,44.539L-138.151,44.539L-138.151,36.738ZM17.868,52.34C17.868,39.435 7.369,28.936 -5.535,28.936L-14.678,28.936C-17.897,19.857 -26.569,13.335 -36.739,13.335L-46.25,13.335L-49.62,-0.142C-52.229,-10.579 -61.565,-17.869 -72.323,-17.869L-94.766,-17.869C-105.524,-17.869 -114.861,-10.579 -117.471,-0.142L-120.84,13.335L-130.351,13.335C-140.521,13.335 -149.191,19.857 -152.412,28.936L-161.555,28.936C-174.459,28.936 -184.957,39.435 -184.957,52.34L-184.957,225.001C-184.957,237.906 -174.459,248.404 -161.555,248.404L-5.533,248.404C0.713,248.404 6.584,245.988 10.998,241.601C15.43,237.197 17.869,231.326 17.869,225.07C17.868,175.298 17.868,52.34 17.868,52.34" style="fill:rgb(201,206,244);fill-rule:nonzero;"/>
            </g>
        </g>
        <g transform="matrix(1,0,0,1,3073.5,0)">
            <g transform="matrix(1,0,0,1,978.3,223.372)">
                <path d="M0,-41.474C-3.045,-44.521 -7.984,-44.521 -11.031,-41.474L-36.719,-15.787L-46.806,-25.871C-49.852,-28.918 -54.791,-28.918 -57.838,-25.871C-60.884,-22.826 -60.884,-17.886 -57.838,-14.839L-42.235,0.762C-40.712,2.286 -38.716,3.047 -36.72,3.047C-34.724,3.047 -32.727,2.286 -31.204,0.762L0,-30.442C3.047,-33.489 3.047,-38.427 0,-41.474" style="fill:rgb(201,206,244);fill-rule:nonzero;"/>
            </g>
        </g>
        <g transform="matrix(1,0,0,1,3073.5,0)">
            <g transform="matrix(1,0,0,1,978.3,270.178)">
                <path d="M0,-41.474C-3.045,-44.521 -7.984,-44.521 -11.031,-41.474L-36.719,-15.787L-46.806,-25.871C-49.852,-28.918 -54.791,-28.918 -57.838,-25.871C-60.884,-22.826 -60.884,-17.886 -57.838,-14.839L-42.235,0.762C-40.712,2.286 -38.716,3.047 -36.72,3.047C-34.724,3.047 -32.727,2.286 -31.204,0.762L0,-30.442C3.047,-33.488 3.047,-38.427 0,-41.474" style="fill:rgb(201,206,244);fill-rule:nonzero;"/>
            </g>
        </g>
        <g transform="matrix(1,0,0,1,3073.5,0)">
            <g transform="matrix(1,0,0,1,978.3,316.984)">
                <path d="M0,-41.473C-3.045,-44.521 -7.984,-44.521 -11.031,-41.473L-36.719,-15.786L-46.806,-25.871C-49.852,-28.918 -54.791,-28.918 -57.838,-25.871C-60.884,-22.825 -60.884,-17.886 -57.838,-14.839L-42.235,0.762C-40.712,2.286 -38.716,3.048 -36.72,3.048C-34.724,3.048 -32.727,2.287 -31.204,0.762L0,-30.442C3.047,-33.488 3.047,-38.427 0,-41.473" style="fill:rgb(201,206,244);fill-rule:nonzero;"/>
            </g>
        </g>
        <g transform="matrix(1,0,0,1,3073.5,0)">
            <g transform="matrix(1,0,0,1,1050.79,210.818)">
                <path d="M0,-15.602L-46.806,-15.602C-51.114,-15.602 -54.607,-12.11 -54.607,-7.801C-54.607,-3.494 -51.114,0 -46.806,0L0,0C4.308,0 7.801,-3.494 7.801,-7.801C7.801,-12.11 4.308,-15.602 0,-15.602" style="fill:rgb(201,206,244);fill-rule:nonzero;"/>
            </g>
        </g>
        <g transform="matrix(1,0,0,1,3073.5,0)">
            <g transform="matrix(1,0,0,1,1050.79,257.623)">
                <path d="M0,-15.602L-46.806,-15.602C-51.114,-15.602 -54.607,-12.11 -54.607,-7.801C-54.607,-3.493 -51.114,0 -46.806,0L0,0C4.308,0 7.801,-3.493 7.801,-7.801C7.801,-12.11 4.308,-15.602 0,-15.602" style="fill:rgb(201,206,244);fill-rule:nonzero;"/>
            </g>
        </g>
        <g transform="matrix(1,0,0,1,3073.5,0)">
            <g transform="matrix(1,0,0,1,1050.79,304.429)">
                <path d="M0,-15.602L-46.806,-15.602C-51.114,-15.602 -54.607,-12.109 -54.607,-7.801C-54.607,-3.493 -51.114,0 -46.806,0L0,0C4.308,0 7.801,-3.493 7.801,-7.801C7.801,-12.109 4.308,-15.602 0,-15.602" style="fill:rgb(201,206,244);fill-rule:nonzero;"/>
            </g>
        </g>
        <g transform="matrix(1,0,0,1,3073.5,0)">
            <g transform="matrix(-1,0,0,1,988.388,132.288)">
                <path d="M0,-15.602C-4.309,-15.602 -7.801,-12.109 -7.801,-7.801C-7.801,-3.493 -4.309,0 0,0C4.309,0 7.801,-3.493 7.801,-7.801C7.801,-12.109 4.309,-15.602 0,-15.602" style="fill:rgb(201,206,244);fill-rule:nonzero;"/>
            </g>
        </g>
    </g>
</svg>
