<svg width="218" height="439" viewBox="0 0 218 439" fill="none" xmlns="http://www.w3.org/2000/svg">
<g id="smartphone 1" clip-path="url(#clip0)">
<g id="device">
<path id="Vector" d="M208.11 27.59L208.11 411.28C208.11 417.417 205.672 423.303 201.332 427.642C196.993 431.982 191.107 434.42 184.97 434.42H32.54C26.4029 434.42 20.5171 431.982 16.1776 427.642C11.838 423.303 9.39999 417.417 9.39999 411.28L9.39999 27.59C9.39999 24.5499 9.99877 21.5396 11.1622 18.7309C12.3256 15.9222 14.0308 13.3702 16.1805 11.2205C20.5219 6.87902 26.4102 4.44 32.55 4.44L184.96 4.44C188 4.43869 191.011 5.03659 193.821 6.19952C196.63 7.36245 199.183 9.06762 201.332 11.2176C203.482 13.3675 205.188 15.92 206.35 18.7293C207.513 21.5386 208.111 24.5495 208.11 27.59V27.59Z" fill="white"/>
<path id="Vector_2" d="M139 434.36H184.17C183.336 432.668 182.331 431.066 181.17 429.58C178.04 425.58 168.47 420.58 162.96 417.98C149.67 409.32 116.71 385.69 113.96 362.58C108.96 321.35 110.15 313.39 97.13 303.77C84.11 294.15 75.13 322.44 74.32 343.13C73.51 363.82 78.51 391.83 93.8 407.64C104.14 418.43 122.92 428.77 139 434.36Z" fill="#E88A74"/>
<path id="Vector_3" d="M10.74 413.08C10.7426 418.72 12.9827 424.128 16.9686 428.117C20.9545 432.107 26.3605 434.352 32 434.36H109.58C106.7 400.95 106.48 364.06 105.12 348.36C101.9 311 86.9 277.12 48 285.76C34.52 288.76 22 296.89 10.72 308.49L10.74 413.08Z" fill="#F73C4F"/>
<path id="Vector_4" d="M113.93 352.73L102.95 359.32L86.77 303.29L111.73 315.42L113.93 352.73Z" fill="#F73C4F"/>
<path id="Vector_5" d="M111.93 199.62C111.93 199.62 144.78 226.22 158.86 252.81C172.94 279.4 157.3 321.65 130.7 323.22C104.1 324.79 99.63 323.07 74.38 285.67C32.14 223.09 57.17 162.07 111.93 199.62Z" fill="#FCB39D"/>
<path id="Vector_6" d="M53.91 248.09L43.69 295.66C43.69 295.66 59.05 306.66 72.22 302.25C85.39 297.84 53.91 248.09 53.91 248.09Z" fill="#FCB39D"/>
<path id="Vector_7" d="M61.11 250C61.11 250 56.93 255.54 43.05 255.52C29.17 255.5 30.59 230.52 37.55 223.59C44.51 216.66 55.55 231.94 55.55 231.94L61.11 250Z" fill="#FCB39D"/>
<path id="Vector_8" d="M50.27 234.2C50.27 234.2 45.88 229.81 41.49 229.81C37.1 229.81 37.1 249.57 43.69 249.57C50.28 249.57 54.69 247.37 50.27 242.98C45.85 238.59 52.47 238.59 50.27 234.2Z" fill="#E89F8E"/>
<path id="Vector_9" d="M62.05 227.73L67.83 238.59C67.83 240.22 71.57 243.98 72.57 245.27C81 256.15 85.39 240.79 107.34 245.18C122.46 248.18 129.29 227.62 144.78 232.48C144.78 232.48 176.15 251.68 164.45 295.15C152.75 338.62 87.24 338 70.68 309C57.56 286.09 51.49 240.86 53.48 229.6C53.5444 229.251 53.7006 228.925 53.9326 228.656C54.1646 228.387 54.464 228.185 54.8 228.07C61.73 225.76 62.45 225.67 62.05 227.73Z" fill="black"/>
<path id="Vector_10" d="M63.93 220.84C63.6865 220.362 63.588 219.824 63.6467 219.291C63.7053 218.758 63.9185 218.253 64.26 217.84C65.4524 216.376 66.46 214.77 67.26 213.06C68.26 210.46 77.65 202.16 82.84 204.24C86.95 205.88 90.37 211.77 82.06 217.48C74.74 222.51 66.16 224.72 63.93 220.84Z" fill="black"/>
<path id="Vector_11" d="M117.87 204C117.908 203.371 117.731 202.748 117.367 202.234C117.004 201.719 116.475 201.344 115.87 201.17C114.034 200.627 112.27 199.861 110.62 198.89C108.28 197.35 95.87 195.84 92.78 200.51C90.34 204.2 90.88 210.99 100.97 210.95C109.53 210.9 117.47 208.11 117.87 204Z" fill="black"/>
<path id="Vector_12" d="M78.81 194.69C78.81 194.69 98.56 181.52 92 161.77C85.44 142.02 50.29 144.21 45.9 159.57C41.51 174.93 43.71 194.69 32.73 201.28C21.75 207.87 36.12 225.45 36.12 225.45C36.12 225.45 50.24 219.86 53.56 232.52C56.88 245.18 62.81 229.12 62.81 229.12C62.81 229.12 54.68 210.06 63.46 203.47C72.24 196.88 78.81 194.69 78.81 194.69Z" fill="black"/>
<path id="Vector_13" d="M133.27 244.85C133.27 244.85 127.59 253.85 115.66 251.27C103.73 248.69 99.92 259.07 106.66 266.27C113.4 273.47 130.8 273.98 140.45 260.83C150.1 247.68 138.78 237.33 133.27 244.85Z" fill="white"/>
<path id="Vector_14" d="M118.61 218.84C119.52 220.41 121.11 221.2 122.16 220.59C123.21 219.98 123.32 218.22 122.41 216.59C121.5 214.96 119.92 214.23 118.87 214.84C117.82 215.45 117.7 217.26 118.61 218.84Z" fill="black"/>
<path id="Vector_15" d="M90.08 229.81C90.99 231.39 92.57 232.17 93.62 231.57C94.67 230.97 94.79 229.19 93.88 227.62C92.97 226.05 91.38 225.26 90.33 225.86C89.28 226.46 89.17 228.24 90.08 229.81Z" fill="black"/>
<path id="Vector_16" d="M108.44 218.84C108.44 221.23 109.149 223.566 110.477 225.552C111.804 227.539 113.692 229.087 115.9 230.001C118.107 230.915 120.537 231.154 122.88 230.687C125.224 230.22 127.376 229.069 129.065 227.378C130.754 225.688 131.904 223.535 132.369 221.191C132.834 218.847 132.593 216.417 131.678 214.21C130.762 212.003 129.212 210.117 127.224 208.791C125.236 207.465 122.9 206.758 120.51 206.76C118.924 206.76 117.354 207.073 115.889 207.68C114.424 208.287 113.093 209.177 111.972 210.299C110.851 211.421 109.962 212.752 109.356 214.218C108.75 215.683 108.439 217.254 108.44 218.84V218.84Z" stroke="black" stroke-width="2.47" stroke-miterlimit="10"/>
<path id="Vector_17" d="M94.68 212.25C94.68 212.25 124.77 226.51 127.94 234.43C131.11 242.35 115.27 245.51 107.35 239.18C99.43 232.85 94.68 212.25 94.68 212.25Z" fill="#E55A81"/>
<path id="Vector_18" opacity="0.5" d="M112.1 224.92C112.1 224.92 123.19 228.09 123.19 231.26C123.19 234.43 104.19 224.92 112.1 224.92Z" fill="white"/>
<path id="Vector_19" d="M78.81 228.71C78.81 231.097 79.5179 233.431 80.8442 235.416C82.1704 237.401 84.0555 238.948 86.261 239.861C88.4665 240.775 90.8934 241.014 93.2347 240.548C95.5761 240.082 97.7268 238.933 99.4148 237.245C101.103 235.557 102.252 233.406 102.718 231.065C103.184 228.723 102.945 226.297 102.031 224.091C101.118 221.885 99.5706 220 97.5857 218.674C95.6008 217.348 93.2672 216.64 90.88 216.64C87.6788 216.64 84.6088 217.912 82.3452 220.175C80.0817 222.439 78.81 225.509 78.81 228.71V228.71Z" stroke="black" stroke-width="2.47" stroke-miterlimit="10"/>
<path id="Vector_20" d="M110.63 211.15L95.25 217.74" stroke="black" stroke-width="2.47" stroke-miterlimit="10"/>
<path id="Vector_21" d="M53.11 226.73L77.71 226.52" stroke="black" stroke-width="2.47" stroke-miterlimit="10"/>
<path id="Vector_22" d="M10.74 413.08C10.7426 418.72 12.9827 424.128 16.9686 428.117C20.9545 432.107 26.3605 434.352 32 434.36H74.21C59.52 421 43.83 402.16 44.72 382.93C46.38 347.17 51.53 331.93 37 318.43C29.39 311.35 19.24 312.1 10.74 318.01V413.08Z" fill="#FCB39D"/>
<path id="Vector_23" d="M185.46 434.36C191.104 434.36 196.516 432.118 200.507 428.127C204.498 424.136 206.74 418.724 206.74 413.08V381.25L140.27 420.9V434.36H185.46Z" fill="#212121"/>
<path id="Vector_24" d="M10.74 391.14C24.0763 390.721 37.0219 386.537 48.08 379.07L54.66 333C54.66 333 54.66 297.88 17.35 313.24C15.0467 314.191 12.8343 315.349 10.74 316.7V391.14Z" fill="#F73C4F"/>
<path id="Vector_25" d="M217.49 72.79V121.19C217.49 122.092 217.132 122.957 216.494 123.594C215.857 124.232 214.992 124.59 214.09 124.59H213.68V412.83C213.68 416.244 213.007 419.625 211.701 422.78C210.394 425.934 208.479 428.8 206.065 431.215C203.65 433.629 200.784 435.544 197.63 436.851C194.475 438.157 191.094 438.83 187.68 438.83H29.85C26.4356 438.83 23.0547 438.157 19.9002 436.851C16.7458 435.544 13.8795 433.629 11.4652 431.215C6.58928 426.339 3.85 419.726 3.85 412.83V150.14H3.4C2.95351 150.14 2.51138 150.052 2.09888 149.881C1.68637 149.71 1.31156 149.46 0.995837 149.144C0.680118 148.828 0.429676 148.454 0.25881 148.041C0.0879436 147.629 0 147.186 0 146.74V116.74C0 115.838 0.358213 114.973 0.995837 114.336C1.63346 113.698 2.49826 113.34 3.4 113.34H3.81V106.19H3.4C2.49826 106.19 1.63346 105.832 0.995837 105.194C0.358213 104.557 0 103.692 0 102.79V72.79C0.00264708 71.89 0.362029 71.0278 0.999366 70.3923C1.6367 69.7568 2.49999 69.4 3.4 69.4H3.81V26C3.81 19.1044 6.54928 12.4912 11.4252 7.61522C16.3012 2.73928 22.9144 0 29.81 0H187.64C194.536 0 201.149 2.73928 206.025 7.61522C210.901 12.4912 213.64 19.1044 213.64 26V69.4H214.05C214.499 69.3947 214.945 69.4784 215.361 69.6463C215.778 69.8142 216.157 70.0629 216.477 70.3781C216.796 70.6933 217.051 71.0687 217.225 71.4827C217.398 71.8966 217.489 72.341 217.49 72.79V72.79ZM206.1 411.28V27.58C206.097 21.9811 203.875 16.6116 199.919 12.6488C195.964 8.686 190.599 6.45324 185 6.44H32.53C26.9233 6.44 21.5463 8.66724 17.5818 12.6318C13.6172 16.5963 11.39 21.9733 11.39 27.58V411.28C11.3887 414.057 11.9346 416.806 12.9965 419.371C14.0584 421.937 15.6155 424.268 17.5788 426.231C19.5421 428.194 21.8731 429.752 24.4385 430.813C27.0039 431.875 29.7535 432.421 32.53 432.42H185C190.6 432.409 195.967 430.177 199.922 426.214C203.878 422.251 206.1 416.88 206.1 411.28V411.28Z" fill="#333343"/>
<path id="Vector_26" d="M45.24 34.1H32.77C32.6348 34.1 32.505 34.0463 32.4094 33.9506C32.3137 33.855 32.26 33.7253 32.26 33.59C32.26 33.4548 32.3137 33.325 32.4094 33.2294C32.505 33.1337 32.6348 33.08 32.77 33.08H45.24C45.3753 33.08 45.505 33.1337 45.6006 33.2294C45.6963 33.325 45.75 33.4548 45.75 33.59C45.75 33.7253 45.6963 33.855 45.6006 33.9506C45.505 34.0463 45.3753 34.1 45.24 34.1Z" fill="#3E3D51"/>
<path id="Vector_27" d="M45.24 38.7H32.77C32.6613 38.669 32.5657 38.6034 32.4977 38.5132C32.4296 38.4229 32.3928 38.313 32.3928 38.2C32.3928 38.087 32.4296 37.9771 32.4977 37.8869C32.5657 37.7966 32.6613 37.7311 32.77 37.7H45.24C45.3487 37.7311 45.4442 37.7966 45.5123 37.8869C45.5804 37.9771 45.6172 38.087 45.6172 38.2C45.6172 38.313 45.5804 38.4229 45.5123 38.5132C45.4442 38.6034 45.3487 38.669 45.24 38.7V38.7Z" fill="#3E3D51"/>
<path id="Vector_28" d="M45.24 43.3H32.77C32.6613 43.2689 32.5657 43.2034 32.4977 43.1131C32.4296 43.0229 32.3928 42.913 32.3928 42.8C32.3928 42.687 32.4296 42.5771 32.4977 42.4868C32.5657 42.3966 32.6613 42.331 32.77 42.3H45.24C45.3487 42.331 45.4442 42.3966 45.5123 42.4868C45.5804 42.5771 45.6172 42.687 45.6172 42.8C45.6172 42.913 45.5804 43.0229 45.5123 43.1131C45.4442 43.2034 45.3487 43.2689 45.24 43.3V43.3Z" fill="#3E3D51"/>
<path id="Vector_29" d="M175.48 47.93H151.48C148.949 47.8489 146.55 46.7867 144.788 44.968C143.027 43.1493 142.042 40.7168 142.042 38.185C142.042 35.6532 143.027 33.2207 144.788 31.402C146.55 29.5833 148.949 28.5211 151.48 28.44H175.48C176.786 28.3982 178.087 28.6193 179.306 29.0902C180.525 29.5611 181.637 30.2722 182.575 31.1812C183.514 32.0902 184.26 33.1787 184.77 34.3818C185.28 35.585 185.542 36.8783 185.542 38.185C185.542 39.4917 185.28 40.785 184.77 41.9882C184.26 43.1913 183.514 44.2798 182.575 45.1888C181.637 46.0978 180.525 46.8089 179.306 47.2798C178.087 47.7507 176.786 47.9718 175.48 47.93V47.93ZM151.48 29.46C149.217 29.5366 147.073 30.4894 145.499 32.1173C143.925 33.7452 143.045 35.9208 143.045 38.185C143.045 40.4492 143.925 42.6248 145.499 44.2527C147.073 45.8806 149.217 46.8334 151.48 46.91H175.48C176.651 46.9496 177.817 46.7533 178.91 46.3327C180.004 45.912 181.001 45.2757 181.843 44.4616C182.685 43.6475 183.355 42.6723 183.812 41.5939C184.27 40.5156 184.505 39.3563 184.505 38.185C184.505 37.0137 184.27 35.8544 183.812 34.776C183.355 33.6977 182.685 32.7225 181.843 31.9084C181.001 31.0943 180.004 30.458 178.91 30.0373C177.817 29.6167 176.651 29.4204 175.48 29.46H151.48Z" fill="#3E3D51"/>
</g>
<g id="hello">
<path id="Vector_30" d="M100.06 83.49H177.38C179.191 83.49 180.929 84.2096 182.21 85.4905C183.49 86.7713 184.21 88.5086 184.21 90.32V129.19C184.21 130.086 184.033 130.974 183.69 131.802C183.347 132.63 182.843 133.383 182.209 134.016C181.575 134.649 180.822 135.152 179.993 135.494C179.164 135.836 178.276 136.011 177.38 136.01H148.75L127 157.77V136H100.06C99.1635 136.001 98.2756 135.826 97.447 135.484C96.6184 135.142 95.8654 134.639 95.2311 134.006C94.5967 133.373 94.0935 132.62 93.7501 131.792C93.4067 130.964 93.23 130.076 93.23 129.18V90.32C93.23 88.5086 93.9496 86.7713 95.2305 85.4905C96.5113 84.2096 98.2486 83.49 100.06 83.49V83.49Z" stroke="#C9CEF4" stroke-width="3.46" stroke-miterlimit="10"/>
<path id="Vector_31" d="M119.12 103.74V115.29H116.45V110.56H111.2V115.29H108.53V103.74H111.2V108.3H116.45V103.74H119.12Z" fill="#2E1E5C"/>
<path id="Vector_32" d="M130.81 113.15V115.29H121.81V103.74H130.54V105.89H124.47V108.4H129.83V110.48H124.47V113.15H130.81Z" fill="#2E1E5C"/>
<path id="Vector_33" d="M132.94 103.74H135.61V113.12H141.4V115.29H132.94V103.74Z" fill="#2E1E5C"/>
<path id="Vector_34" d="M142.9 103.74H145.58V113.12H151.37V115.29H142.9V103.74Z" fill="#2E1E5C"/>
<path id="Vector_35" d="M155 114.72C154.066 114.225 153.285 113.485 152.74 112.58C152.21 111.647 151.931 110.593 151.931 109.52C151.931 108.447 152.21 107.393 152.74 106.46C153.285 105.555 154.066 104.815 155 104.32C156.001 103.792 157.118 103.524 158.25 103.54C159.375 103.522 160.487 103.791 161.48 104.32C162.421 104.824 163.207 105.574 163.755 106.49C164.303 107.406 164.593 108.453 164.593 109.52C164.593 110.587 164.303 111.634 163.755 112.55C163.207 113.466 162.421 114.216 161.48 114.72C160.484 115.241 159.374 115.506 158.25 115.49C157.12 115.505 156.003 115.24 155 114.72V114.72ZM160.1 112.72C160.645 112.413 161.092 111.959 161.39 111.41C161.698 110.819 161.86 110.162 161.86 109.495C161.86 108.828 161.698 108.171 161.39 107.58C161.089 107.033 160.643 106.579 160.1 106.27C159.532 105.962 158.896 105.801 158.25 105.801C157.604 105.801 156.968 105.962 156.4 106.27C155.857 106.582 155.408 107.034 155.1 107.58C154.792 108.171 154.63 108.828 154.63 109.495C154.63 110.162 154.792 110.819 155.1 111.41C155.405 111.958 155.854 112.411 156.4 112.72C156.966 113.034 157.603 113.199 158.25 113.199C158.897 113.199 159.534 113.034 160.1 112.72V112.72Z" fill="#2E1E5C"/>
<path id="Vector_36" d="M166.49 115C166.345 114.863 166.23 114.697 166.152 114.512C166.075 114.328 166.037 114.13 166.04 113.93C166.042 113.741 166.083 113.555 166.161 113.383C166.238 113.211 166.35 113.057 166.49 112.93C166.806 112.658 167.208 112.509 167.625 112.509C168.042 112.509 168.444 112.658 168.76 112.93C168.9 113.057 169.012 113.211 169.089 113.383C169.167 113.555 169.208 113.741 169.21 113.93C169.214 114.131 169.175 114.33 169.096 114.515C169.016 114.699 168.898 114.865 168.75 115C168.6 115.145 168.423 115.258 168.229 115.334C168.035 115.409 167.828 115.445 167.62 115.44C167.2 115.448 166.794 115.29 166.49 115ZM166.09 103.75H169.16L168.65 111.29H166.6L166.09 103.75Z" fill="#2E1E5C"/>
</g>
</g>
<defs>
<clipPath id="clip0">
<rect width="217.49" height="438.86" fill="white"/>
</clipPath>
</defs>
</svg>
